<svg xmlns="http://www.w3.org/2000/svg" width="35.961" height="24.898" viewBox="0 0 35.961 24.898">
  <g id="Icon_ionic-ios-mail" data-name="Icon ionic-ios-mail" opacity="0.85">
    <path id="Trazado_6893" data-name="Trazado 6893" d="M39.043,10.367l-9.3,9.475a.167.167,0,0,0,0,.242l6.509,6.933a1.122,1.122,0,0,1,0,1.591,1.127,1.127,0,0,1-1.591,0L28.176,21.7a.177.177,0,0,0-.251,0l-1.582,1.608A6.96,6.96,0,0,1,21.382,25.4a7.1,7.1,0,0,1-5.066-2.153L14.794,21.7a.177.177,0,0,0-.251,0L8.06,28.608a1.127,1.127,0,0,1-1.591,0,1.122,1.122,0,0,1,0-1.591l6.509-6.933a.184.184,0,0,0,0-.242l-9.31-9.475a.17.17,0,0,0-.294.121V29.447a2.774,2.774,0,0,0,2.766,2.766H36.57a2.774,2.774,0,0,0,2.766-2.766V10.488A.173.173,0,0,0,39.043,10.367Z" transform="translate(-3.375 -7.315)" fill="#53b3d3"/>
    <path id="Trazado_6894" data-name="Trazado 6894" d="M21.161,23.7a4.7,4.7,0,0,0,3.38-1.418L38.1,8.48a2.717,2.717,0,0,0-1.712-.605H5.937a2.7,2.7,0,0,0-1.712.605L17.789,22.286A4.7,4.7,0,0,0,21.161,23.7Z" transform="translate(-3.18 -7.875)" fill="#53b3d3"/>
  </g>
</svg>