<svg xmlns="http://www.w3.org/2000/svg" width="31.175" height="31.177" viewBox="0 0 31.175 31.177">
  <path id="Icon_awesome-phone-alt" data-name="Icon awesome-phone-alt" d="M30.286,22.031l-6.82-2.923a1.461,1.461,0,0,0-1.7.42l-3.02,3.69A22.57,22.57,0,0,1,7.952,12.429l3.69-3.02a1.458,1.458,0,0,0,.42-1.705L9.14.884A1.471,1.471,0,0,0,7.465.037L1.133,1.5A1.461,1.461,0,0,0,0,2.923,28.251,28.251,0,0,0,28.253,31.177a1.461,1.461,0,0,0,1.425-1.133l1.461-6.333a1.479,1.479,0,0,0-.853-1.681Z" transform="translate(0 0)" fill="#53b3d3" opacity="0.85"/>
</svg>