<svg id="Grupo_13780" data-name="Grupo 13780" xmlns="http://www.w3.org/2000/svg" width="178.685" height="178.666" viewBox="0 0 178.685 178.666">
  <path id="Trazado_5349" data-name="Trazado 5349" d="M-595.537,834.576a111.826,111.826,0,0,1,15.063,2.679c1.456.4,2.929.761,4.344,1.276a4.568,4.568,0,0,1,3.034,5.679,4.516,4.516,0,0,1-5.773,3.108,83.183,83.183,0,0,0-25.773-3.581A78.676,78.676,0,0,0-652.081,860.6c-16.777,13.116-26.8,30.371-30.1,51.363a80,80,0,0,0,40.661,82.155,78.466,78.466,0,0,0,43.79,9.774,80,80,0,0,0,73.456-64.247,78.62,78.62,0,0,0-1.616-38.089c-.161-.558-.324-1.116-.459-1.681a4.57,4.57,0,0,1,3.159-5.752,4.532,4.532,0,0,1,5.666,3.054,65.052,65.052,0,0,1,2.578,10.3c4.493,26.327-1.117,50.315-17.492,71.412-14.366,18.51-33.419,29.816-56.615,33.229-30.829,4.536-57.367-4.681-78.973-27.092-13.334-13.831-20.992-30.641-23.545-49.724-.184-1.377-.379-2.753-.569-4.129V916.526c.462-3.152.718-6.35,1.416-9.449q12.168-54.04,65.318-69.776a95.415,95.415,0,0,1,15.216-2.725Z" transform="translate(692.134 -834.576)" fill="#fff"/>
  <path id="Trazado_5350" data-name="Trazado 5350" d="M-552.5,919.879a52.81,52.81,0,0,0-52.072,44.082,53.224,53.224,0,0,0,41.438,60.912,53.258,53.258,0,0,0,63.307-42.509,57.641,57.641,0,0,0,.648-13.017,4.749,4.749,0,0,1,1.912-4.425,4.331,4.331,0,0,1,4.617-.449,4.756,4.756,0,0,1,2.752,4.314,58.729,58.729,0,0,1-7.4,33.879c-9.368,16.835-23.6,27.379-42.475,31.385-26.087,5.537-53.542-7.052-66.638-30.315a61.5,61.5,0,0,1-8.107-34.11,62.433,62.433,0,0,1,51.539-58.286,49.92,49.92,0,0,1,14.9-.722,4.94,4.94,0,0,1,4.53,5.232c-.136,2.486-2.06,4.051-4.942,4.031C-549.827,919.871-551.162,919.879-552.5,919.879Z" transform="translate(641.701 -883.864)" fill="#fff"/>
  <path id="Trazado_5351" data-name="Trazado 5351" d="M-417.981,898.387c0-2.323.021-4.647,0-6.969a5.425,5.425,0,0,1,1.663-4.069q13.064-13.056,26.123-26.118a4.539,4.539,0,0,1,5.226-1.3,4.72,4.72,0,0,1,3.02,4.675c.064,3.6.077,7.2,0,10.8-.029,1.45.489,1.934,1.921,1.906,3.6-.07,7.2-.06,10.8.005a4.712,4.712,0,0,1,4.665,3.034c.813,2.033.15,3.741-1.314,5.225q-.245.248-.491.5-12.567,12.568-25.12,25.149a6.627,6.627,0,0,1-5.107,2.142c-4.355-.076-8.712.017-13.068-.047a3.9,3.9,0,0,0-3.056,1.289q-13.822,13.9-27.705,27.739a5.811,5.811,0,0,1-3.166,2.024,4.58,4.58,0,0,1-4.986-2.383,4.64,4.64,0,0,1,1-5.583q7.853-7.918,15.76-15.782c4.23-4.231,8.445-8.477,12.705-12.677a3.461,3.461,0,0,0,1.142-2.765C-418.028,902.918-417.983,900.652-417.981,898.387Zm26.776-22.251-.627-.1q-8.194,8.17-16.39,16.339a2.08,2.08,0,0,0-.492,1.614c0,2.845.046,5.692-.02,8.536-.029,1.264.514,1.592,1.669,1.569q4.092-.08,8.187,0a3.132,3.132,0,0,0,2.447-1.049c4.991-5.029,10.013-10.026,15.012-15.046.29-.291.829-.507.579-1.162-2.011-.093-4.041-.1-6.05-.3a4.277,4.277,0,0,1-4.286-4.388C-391.328,880.158-391.205,878.142-391.205,876.136Z" transform="translate(534.021 -850.839)" fill="#fff"/>
  <path id="Trazado_5352" data-name="Trazado 5352" d="M-502.369,1049.094a26.3,26.3,0,0,0,26.439-25.777c.1-3.24,2.014-5.34,4.8-5.27,2.693.067,4.427,2.2,4.471,5.384a31.47,31.47,0,0,1-.788,6.908c-3.253,15.5-17.046,27.079-32.825,28.036a35.747,35.747,0,0,1-37.611-31.218A35.706,35.706,0,0,1-507.646,987.3a29.445,29.445,0,0,1,5.032-.34,4.677,4.677,0,0,1,4.86,4.461,4.617,4.617,0,0,1-4.577,4.752,34.286,34.286,0,0,0-7.219,1.027,26.59,26.59,0,0,0-19.256,27.733c.695,11.174,9.893,21.618,21.412,23.762A26.5,26.5,0,0,0-502.369,1049.094Z" transform="translate(591.964 -933.71)" fill="#fff"/>
</svg>
