<svg xmlns="http://www.w3.org/2000/svg" width="365.314" height="78" viewBox="0 0 365.314 78">
  <g id="Grupo_2" data-name="Grupo 2" transform="translate(-1392.156 -884.514)">
    <path id="Trazado_7285" data-name="Trazado 7285" d="M1932.992,931.006c3.7-4.789,12.062-4.5,14.023.73,2.067-3.851,5.462-4.59,9.289-3.938,3.063.521,5,2.854,5.066,6.238.128,6.959.048,13.921.082,20.883,0,.775-.349.891-1,.881-1.729-.027-3.461-.059-5.188.011-.951.039-1.238-.252-1.23-1.217.044-5.232.022-10.465.019-15.7,0-.955,0-1.911-.038-2.865a2.712,2.712,0,0,0-1.884-2.849,3.566,3.566,0,0,0-3.958,1.444,5.734,5.734,0,0,0-.747,3.138q.02,8.121,0,16.243c0,2.036.25,1.763-1.846,1.781-1.456.013-2.918-.077-4.368.028-1.14.082-1.346-.368-1.338-1.395.044-5.687.021-11.375.021-17.062,0-.41.011-.82-.006-1.229-.067-1.665-.7-2.642-1.913-2.962a3.592,3.592,0,0,0-4,1.623,6.444,6.444,0,0,0-.685,3.162c.008,5.505-.028,11.011.03,16.516.011,1.1-.327,1.4-1.381,1.342a39.914,39.914,0,0,0-4.64,0c-1.118.07-1.459-.243-1.448-1.407.06-6.324.029-12.648.029-18.973,0-2.048.03-4.1-.016-6.142-.016-.775.235-1.043,1.011-1.02a45.183,45.183,0,0,0,4.64-.014c1.23-.091,1.672.325,1.476,1.516A9.491,9.491,0,0,0,1932.992,931.006Z" transform="translate(-229.724 -18.54)" fill="#54b4d4"/>
    <path id="Trazado_7286" data-name="Trazado 7286" d="M1552.453,929.649a51.257,51.257,0,0,1-.742,10.633,12.821,12.821,0,0,1-1.646,4.447,1.076,1.076,0,0,0,.225,1.631c.946.851,1.829,1.771,2.772,2.625.487.441.52.711-.037,1.153-1.1.875-2.171,1.8-3.186,2.779-.618.6-1.041.487-1.574-.076-.907-.957-1.9-1.838-2.787-2.809a1.947,1.947,0,0,0-2.145-.639,18.011,18.011,0,0,1-8.9-.262c-4.231-1.176-6.4-4.269-7.173-8.3a49.838,49.838,0,0,1,.148-20.565c1.208-5.324,4.9-8.19,10.358-8.368a26.016,26.016,0,0,1,5.032.2c4.619.747,7.366,3.483,8.591,7.872A37.93,37.93,0,0,1,1552.453,929.649Zm-18.256,1.029c0,.818-.01,1.636,0,2.454a28.012,28.012,0,0,0,.887,7.952,3.925,3.925,0,0,0,3.117,3.067c3.179.588,5.222-.767,5.839-4.118.919-5,.67-10.043.44-15.078a14.719,14.719,0,0,0-.92-4.927,3.965,3.965,0,0,0-3.871-2.687c-2.771-.069-4.288,1.229-4.9,4.247A43.652,43.652,0,0,0,1534.2,930.677Z" transform="translate(-57.724 -11.775)" fill="#54b4d4"/>
    <path id="Trazado_7287" data-name="Trazado 7287" d="M1809.885,924.524c2.617-3.2,5.818-3.657,9.253-2.966a6.061,6.061,0,0,1,4.93,5.782c.236,2.408.172,4.817.177,7.226.009,4.553-.028,9.105.026,13.656.012,1.027-.277,1.344-1.3,1.292-1.681-.085-3.371-.076-5.053,0-.965.042-1.229-.273-1.221-1.227.042-5.553.021-11.107.021-16.661,0-.409.006-.82,0-1.229-.056-2.5-.907-3.547-2.932-3.6a3.5,3.5,0,0,0-3.938,3.572c-.064,1.135-.022,2.275-.022,3.413,0,4.78-.026,9.56.02,14.339.01,1.013-.171,1.478-1.327,1.4a38.026,38.026,0,0,0-4.914,0c-1.147.073-1.337-.379-1.334-1.4.033-9.924.02-19.848.02-29.771,0-1.366.04-2.733-.014-4.1-.036-.9.192-1.337,1.2-1.3,1.728.069,3.461.055,5.19.005.892-.026,1.184.29,1.171,1.185-.044,3.14-.018,6.282-.015,9.423C1809.82,923.776,1809.847,923.987,1809.885,924.524Z" transform="translate(-176.524 -12.241)" fill="#54b4d4"/>
    <path id="Trazado_7288" data-name="Trazado 7288" d="M1752.729,932.117c0-5.639.024-11.278-.022-16.916-.009-1.036.219-1.407,1.339-1.389,4.093.071,8.188.018,12.281.031,6.152.019,10.092,3.745,10.4,9.905.217,4.39-.834,8.244-5.013,10.552a15.492,15.492,0,0,1-7.116,1.559c-1.3.047-2.96-.573-3.791.306-.763.807-.209,2.433-.221,3.7-.031,3.092-.04,6.185.008,9.276.014.919-.2,1.3-1.2,1.256-1.816-.076-3.64-.072-5.457,0-.963.038-1.228-.273-1.221-1.225C1752.75,943.486,1752.729,937.8,1752.729,932.117Zm7.842-7.424V926.6c0,3.9,0,3.9,3.96,3.66a4.334,4.334,0,0,0,4.2-3.454,8.659,8.659,0,0,0-.031-4.056,4.1,4.1,0,0,0-3.586-3.266,27.993,27.993,0,0,0-3.536-.193c-.781-.041-1.043.263-1.02,1.028C1760.6,921.779,1760.571,923.236,1760.57,924.693Z" transform="translate(-155.193 -12.611)" fill="#54b4d4"/>
    <path id="Trazado_7289" data-name="Trazado 7289" d="M1594.384,953.2c-2.688,3.615-6.024,4.374-9.833,3.573-2.971-.624-4.86-3.15-4.9-6.715-.072-6.736-.008-13.473-.038-20.209,0-.885.372-1.081,1.147-1.065,1.684.032,3.373.076,5.053-.014,1.123-.06,1.377.367,1.37,1.414q-.062,9.08-.007,18.161c.011,2.129.709,2.906,2.6,3.161a3.483,3.483,0,0,0,3.98-2.343,7.947,7.947,0,0,0,.323-2.423c-.014-5.508.023-11.016-.032-16.523-.011-1.114.261-1.521,1.424-1.45,1.633.1,3.277.058,4.915.011.8-.023,1.117.2,1.115,1.068q-.041,12.7,0,25.4c0,.851-.271,1.1-1.094,1.067-1.592-.056-3.191-.084-4.779.008-1.065.062-1.387-.324-1.26-1.317A16.84,16.84,0,0,0,1594.384,953.2Z" transform="translate(-80.689 -19.044)" fill="#54b4d4"/>
    <path id="Trazado_7290" data-name="Trazado 7290" d="M2008.794,952.948c-2.033,3.357-5.069,3.88-8.326,3.493-3.421-.407-5.517-2.724-5.914-6.306a15.308,15.308,0,0,1,.026-3.538,6.748,6.748,0,0,1,4.465-5.7c2.365-.978,4.889-1.376,7.32-2.109,1.3-.391,2.312-1.011,2.409-2.573.144-2.313-.742-3.539-2.787-3.716-2.408-.209-3.761.892-3.857,3.28-.034.849-.3,1.1-1.114,1.07-1.545-.052-3.094-.058-4.639,0-.877.034-1.054-.328-1.052-1.122,0-4.351,2.7-7.324,7.538-7.994a20.386,20.386,0,0,1,7.461.288c3.915.917,5.632,3.3,5.66,7.829.033,5.457.026,10.913.063,16.37a5.441,5.441,0,0,0,.3,2.006c.535,1.286.176,1.656-1.158,1.557a21.822,21.822,0,0,0-3.953.009c-1.332.144-1.94-.374-2.112-1.621A12.093,12.093,0,0,0,2008.794,952.948Zm-.069-10.741a15.345,15.345,0,0,1-4.055,1.541,3.992,3.992,0,0,0-2.938,2.771c-.636,2.182.329,4.628,2.006,5.061,2.086.538,4.791-1.215,4.956-3.374C2008.839,946.313,2008.725,944.4,2008.725,942.207Z" transform="translate(-259.254 -18.512)" fill="#54b4d4"/>
    <path id="Trazado_7291" data-name="Trazado 7291" d="M1860.943,953c-1.7,2.818-4.167,3.5-6.925,3.545a6.708,6.708,0,0,1-7.265-6.4,16.451,16.451,0,0,1,.021-3.54,6.8,6.8,0,0,1,4.7-5.822c2.295-.89,4.728-1.287,7.074-1.991,1.888-.567,2.5-1.476,2.409-3.415a2.729,2.729,0,0,0-2.939-2.891c-2.049-.121-3.583.846-3.617,2.634-.031,1.634-.756,1.842-2.089,1.732a21.72,21.72,0,0,0-3.545,0c-1.1.09-1.274-.383-1.24-1.342.147-4.312,2.667-7.069,7.463-7.766a19.41,19.41,0,0,1,7.589.316c3.716.942,5.448,3.1,5.48,6.927.035,4,0,8,.011,12.006.007,2.72-.154,5.458.7,8.1.158.488-.012.665-.5.663-1.956-.007-3.912-.015-5.868,0-.541.006-.7-.355-.839-.738C1861.372,954.481,1861.223,953.919,1860.943,953Zm-.01-10.743a23.517,23.517,0,0,1-4.3,1.55,4.407,4.407,0,0,0-2.333,6.482,2.649,2.649,0,0,0,1.54,1.266c2.085.623,4.913-1.179,5.068-3.366C1861.04,946.3,1860.933,944.389,1860.933,942.253Z" transform="translate(-195.637 -18.509)" fill="#54b4d4"/>
    <path id="Trazado_7292" data-name="Trazado 7292" d="M1638.374,952.991c-1.7,2.83-4.173,3.5-6.93,3.551a6.71,6.71,0,0,1-7.261-6.406,16.524,16.524,0,0,1,.022-3.539,6.809,6.809,0,0,1,4.708-5.818c2.294-.889,4.728-1.286,7.073-1.991,1.881-.565,2.495-1.479,2.4-3.42a2.733,2.733,0,0,0-2.948-2.884c-2.047-.118-3.58.852-3.61,2.642-.028,1.646-.771,1.835-2.1,1.725a19.51,19.51,0,0,0-3.408,0c-1.219.113-1.425-.407-1.366-1.487.232-4.258,2.72-6.94,7.466-7.624a19.442,19.442,0,0,1,7.589.318c3.713.944,5.442,3.108,5.474,6.932.034,3.956,0,7.913.011,11.87.009,2.765-.17,5.549.7,8.24.161.5-.031.658-.507.656-1.956-.007-3.912-.015-5.868,0-.543.006-.7-.364-.834-.743C1638.8,954.476,1638.653,953.915,1638.374,952.991Zm-.022-10.809a15.723,15.723,0,0,1-4.181,1.583,4.415,4.415,0,0,0-2.432,6.539,2.629,2.629,0,0,0,1.549,1.253c2.036.589,4.849-1.135,5.029-3.257C1638.481,946.375,1638.352,944.424,1638.352,942.182Z" transform="translate(-99.836 -18.509)" fill="#54b4d4"/>
    <path id="Trazado_7293" data-name="Trazado 7293" d="M1711.335,946.762c.273,0,.546,0,.819,0a5.451,5.451,0,0,1,2.023.095c.715.326.272,1.221.41,1.854a3.678,3.678,0,0,0,4.271,2.925c2.2-.275,3.239-1.459,3.1-3.528-.1-1.517-1.149-2.208-2.391-2.664-1.962-.722-3.965-1.332-5.922-2.067-5.388-2.024-7.384-7.876-4.194-12.254a8.621,8.621,0,0,1,6.071-3.3,16.943,16.943,0,0,1,8.354.554,6.954,6.954,0,0,1,4.621,7.526c-.06.509-.216.73-.736.726-1.73-.014-3.461-.035-5.19.01-.829.022-.8-.472-.858-1.049-.265-2.716-2.256-3.864-4.752-2.8a2.753,2.753,0,0,0-1.785,2.382,2.576,2.576,0,0,0,1.342,2.508,20.372,20.372,0,0,0,4.445,1.7c1.242.437,2.505.821,3.721,1.321,3.158,1.3,4.554,3.8,4.51,7.105-.044,3.29-1.341,5.994-4.439,7.405a15.9,15.9,0,0,1-12.612.256c-3.776-1.44-4.374-4.9-4.338-8.049.006-.572.334-.662.8-.656C1709.514,946.771,1710.424,946.763,1711.335,946.762Z" transform="translate(-135.865 -18.526)" fill="#54b4d4"/>
    <path id="Trazado_7294" data-name="Trazado 7294" d="M1675.71,931.542c0,5.546-.035,11.093.028,16.64.013,1.163-.337,1.479-1.452,1.409a34.453,34.453,0,0,0-4.5,0c-1.17.079-1.531-.226-1.521-1.473.063-8.456.033-16.912.033-25.368,0-2.819.03-5.638-.018-8.456-.015-.889.255-1.192,1.157-1.156,1.635.065,3.276.078,4.91,0,1.059-.052,1.4.261,1.387,1.358C1675.682,920.175,1675.71,925.858,1675.71,931.542Z" transform="translate(-118.847 -12.317)" fill="#53b3d3"/>
    <path id="Trazado_7295" data-name="Trazado 7295" d="M1898.879,931.658c.717-.846,1.243-1.511,1.816-2.132a6.267,6.267,0,0,1,3.024-1.762c2.691-.744,3.152-.407,3.152,2.319,0,1.137-.033,2.276.011,3.412.029.723-.228.975-.949.9a14.249,14.249,0,0,0-1.91-.01,4.664,4.664,0,0,0-4.832,4.963c-.016,5-.031,10.01.018,15.014.01,1.031-.2,1.45-1.332,1.381-1.678-.1-3.368-.07-5.05-.009-.856.031-1.069-.279-1.067-1.094q.037-12.625-.006-25.251c0-1.007.366-1.227,1.272-1.191,1.5.06,3.007.081,4.5-.005,1.1-.063,1.481.342,1.362,1.405A20.488,20.488,0,0,0,1898.879,931.658Z" transform="translate(-215.044 -18.469)" fill="#53b3d3"/>
    <path id="Trazado_7296" data-name="Trazado 7296" d="M1696.314,942.863c0,4.05-.03,8.1.021,12.151.013,1.011-.17,1.468-1.319,1.4-1.677-.107-3.367-.056-5.051-.015-.728.018-1.046-.145-1.043-.966q.04-12.7,0-25.394c0-.861.3-1.087,1.108-1.064,1.729.047,3.461.066,5.188-.006.96-.04,1.116.373,1.111,1.2C1696.3,934.4,1696.314,938.631,1696.314,942.863Z" transform="translate(-127.738 -19.132)" fill="#53b3d3"/>
    <path id="Trazado_7297" data-name="Trazado 7297" d="M1752.039,998.822a2.155,2.155,0,0,1,1.732,2.775,3.927,3.927,0,0,1-3.7,3.57c-1.488.135-3,.035-4.5.046-.725.005-.813-.441-.716-1,.591-3.445,1.179-6.891,1.791-10.332.089-.505.314-.965.96-.959,1.272.013,2.554-.069,3.813.063a2.655,2.655,0,0,1,2.665,1.94,3.4,3.4,0,0,1-1.355,3.47C1752.555,998.524,1752.354,998.628,1752.039,998.822Zm-4.56,4.176a15.433,15.433,0,0,0,2.411-.024,1.606,1.606,0,0,0,1.388-1.878c-.072-.962-.806-1-1.579-1.1-1.309-.159-2.046.209-2.008,1.649A8.009,8.009,0,0,1,1747.479,1003Zm1.991-5.161c1.4-.011,2.086-.57,2.068-1.65-.022-1.27-.974-1.062-1.763-1.083-1.777-.049-1.075,1.431-1.264,2.244C1748.309,998.22,1749.2,997.636,1749.47,997.837Z" transform="translate(-151.801 -46.655)" fill="#060606"/>
    <path id="Trazado_7298" data-name="Trazado 7298" d="M1493.643,965.536a14,14,0,0,1-3.009,4.377l-.349.268.023-.019c-.173.023-.287.1-.287.294l.016-.014c-.458-.04-.726.32-1.066.521a25.814,25.814,0,0,1-10.215,3.634,1.843,1.843,0,0,1,.206-.49,56.571,56.571,0,0,0,6.441-9.965A52.412,52.412,0,0,1,1493.643,965.536Z" transform="translate(-37.276 -34.275)" fill="#6ac0b2"/>
    <path id="Trazado_7299" data-name="Trazado 7299" d="M1837.716,1011.716a4.763,4.763,0,0,1-2.182-.383c-.586-.226-1.306-.532-.808-1.372.387-.652.783-1.287,1.817-.692,1.577.908,3.1.539,3.763-.742.116-.223.251-.564.161-.739-.169-.328-.451-.048-.693.035-2.729.936-4.445-.368-4.327-3.284.1-2.579,1.456-4.663,3.418-5.224a2.209,2.209,0,0,1,1.192-.143c1.108.384,2.1,1.062,3.375.287.511-.312.93.238.817.856-.519,2.855-.722,5.783-1.687,8.536C1841.849,1010.886,1840.295,1011.721,1837.716,1011.716Zm.06-7.467c-.011,1.024.212,1.71,1.041,1.948a1.668,1.668,0,0,0,1.9-.759,3.855,3.855,0,0,0,.658-3.1,1.442,1.442,0,0,0-1.1-1.254,1.594,1.594,0,0,0-1.569.617A4.106,4.106,0,0,0,1837.777,1004.249Zm2.875,3.191-.1-.1a.876.876,0,0,0-.085.183c0,.022.055.059.085.089Z" transform="translate(-190.426 -49.335)" fill="#060606"/>
    <path id="Trazado_7300" data-name="Trazado 7300" d="M1802.161,1000.3a1.316,1.316,0,0,1,1.842-.816c.789.244.431,1,.338,1.532-.395,2.281-.742,4.576-1.274,6.826a5.189,5.189,0,0,1-7.486,3.449c-.572-.269-1.134-.611-.661-1.328.369-.56.681-1.286,1.7-.734,1.651.894,2.843.716,3.658-.359.235-.311.616-.7.367-1.075-.283-.424-.642.057-.944.162a2.843,2.843,0,0,1-4.06-2.736,6.178,6.178,0,0,1,1.992-5.156A3.032,3.032,0,0,1,1802.161,1000.3Zm-4.194,3.874c-.025,1.059.172,1.759.99,2.024a1.653,1.653,0,0,0,1.913-.709,3.856,3.856,0,0,0,.7-3.092,1.46,1.46,0,0,0-1.064-1.288,1.617,1.617,0,0,0-1.675.672A4.108,4.108,0,0,0,1797.966,1004.173Zm2.773,3.182c-.03.03-.09.067-.085.089a.885.885,0,0,0,.085.183c.031-.03.091-.067.085-.089A.694.694,0,0,0,1800.739,1007.354Z" transform="translate(-173.287 -49.347)" fill="#060606"/>
    <path id="Trazado_7301" data-name="Trazado 7301" d="M1504.529,924.837a17.5,17.5,0,0,1,.283,5.19c-2.579-.03-5.059-.756-7.594-1.095a46.7,46.7,0,0,0-.553-12.3,1.966,1.966,0,0,1,.257-.039A35.167,35.167,0,0,1,1504.529,924.837Z" transform="translate(-44.984 -13.808)" fill="#b5e741"/>
    <path id="Trazado_7302" data-name="Trazado 7302" d="M1864.831,1007.636c-.539-.124-.781.216-1.1.334a2.89,2.89,0,0,1-3.995-2.107,6.241,6.241,0,0,1,1.434-5.463,3.128,3.128,0,0,1,4.751-.344c.506.472.523.115.718-.175a1.121,1.121,0,0,1,1.447-.394c.568.23.322.782.25,1.2-.561,3.215-1.141,6.425-1.717,9.637-.1.586-.162,1.159-.975,1.247-1.194.13-1.488-.119-1.3-1.311C1864.488,1009.383,1864.668,1008.512,1864.831,1007.636Zm-2.888-3.409c-.006.8.056,1.591.937,1.922a1.682,1.682,0,0,0,2.073-.861,3.714,3.714,0,0,0,.6-2.843,1.481,1.481,0,0,0-1.141-1.368,1.671,1.671,0,0,0-1.648.739A4.62,4.62,0,0,0,1861.942,1004.227Z" transform="translate(-201.209 -49.331)" fill="#060606"/>
    <path id="Trazado_7303" data-name="Trazado 7303" d="M1480.563,891.625a18.983,18.983,0,0,1,4.6,2.948,4.74,4.74,0,0,0,.88,1.944,30.566,30.566,0,0,1,3.435,9.164,42.031,42.031,0,0,0-9.216-6.122c0-1.489-.042-2.98.01-4.468C1480.316,893.934,1480,892.74,1480.563,891.625Z" transform="translate(-37.907 -3.061)" fill="#6ac0b2"/>
    <path id="Trazado_7304" data-name="Trazado 7304" d="M1456.31,884.783a23.212,23.212,0,0,1,7.1,1.23q0,4.087,0,8.174l-7.1-1.409Z" transform="translate(-27.613 -0.116)" fill="#8cd282"/>
    <path id="Trazado_7305" data-name="Trazado 7305" d="M1400.607,906.417a9.1,9.1,0,0,1,1.482-2.206l.2-.211-.035.018,6.854-2.758,5.934-1.945a45.6,45.6,0,0,0-7.332,9.611c-1.46-.414-2.945-.759-4.373-1.263C1402.4,907.332,1401.268,907.371,1400.607,906.417Z" transform="translate(-3.637 -6.371)" fill="#5fbac3"/>
    <path id="Trazado_7306" data-name="Trazado 7306" d="M1468.779,895.117q0-4.087,0-8.174a22.688,22.688,0,0,1,6.856,2.667c-.561,1.115-.248,2.309-.288,3.466-.052,1.488-.011,2.979-.01,4.469Z" transform="translate(-32.981 -1.046)" fill="#7bc99b"/>
    <path id="Trazado_7307" data-name="Trazado 7307" d="M1471.926,979.357a25.822,25.822,0,0,0,10.215-3.634c.339-.2.607-.56,1.066-.521.034.637-.512.906-.859,1.271a33.81,33.81,0,0,1-19.459,10.535q.044-.176.086-.351a12.179,12.179,0,0,0,3.076-1.971c1.879-1.608,4-2.967,5.374-5.111l.055-.071.345-.126Z" transform="translate(-30.446 -39.034)" fill="#4fb510"/>
    <path id="Trazado_7308" data-name="Trazado 7308" d="M1392.619,946.132q-.09-1.542-.182-3.084l7.647,2.192a55.3,55.3,0,0,0,1.01,10.154c-1.741-.809-2.742-2.5-4.265-3.569A42.207,42.207,0,0,1,1392.619,946.132Z" transform="translate(-0.121 -25.195)" fill="#b5e741"/>
    <path id="Trazado_7309" data-name="Trazado 7309" d="M1937.228,1005.321c.733-1.547,1.475-3.092,2.193-4.646.236-.512.473-1.031,1.108-1.063.482-.024,1.082-.245,1.436.129.424.447-.045.934-.25,1.358q-1.9,3.918-3.834,7.817c-.774,1.55-1.713,2.937-3.71,2.965-.574.008-1.384.121-1.357-.7.019-.622.09-1.558,1.18-1.49a1.5,1.5,0,0,0,1.328-.564c.3-.392.984-.887-.111-1.221-.408-.125-.383-.589-.424-.94q-.37-3.116-.712-6.233c-.072-.649-.021-1.207.876-1.154.709.042,1.525-.175,1.607.947.116,1.578.264,3.154.4,4.73Z" transform="translate(-232.717 -49.505)" fill="#060606"/>
    <path id="Trazado_7310" data-name="Trazado 7310" d="M1420.9,893.364l-5.934,1.946a3.04,3.04,0,0,1-.274-1.685c-.021-.512.154-1.1-.484-1.406a37.21,37.21,0,0,1,15.785-6.728,2,2,0,0,1-.355.4,33.971,33.971,0,0,0-8.152,7.2Z" transform="translate(-9.492 -0.421)" fill="#4fb510"/>
    <path id="Trazado_7311" data-name="Trazado 7311" d="M1415.221,978.285a17.383,17.383,0,0,1-3.5-2.255c-.219-.444-.435-.891-.659-1.333a30.818,30.818,0,0,1-3.174-9.481,44.177,44.177,0,0,0,8.45,6.009,14.426,14.426,0,0,1-.334,2.781C1415.744,975.429,1416.1,976.981,1415.221,978.285Z" transform="translate(-6.771 -34.737)" fill="#5fbac3"/>
    <path id="Trazado_7312" data-name="Trazado 7312" d="M1891.752,1004.539a5.922,5.922,0,0,1,1.491-4.135,3.327,3.327,0,0,1,4.522-.65c.391.268.509.257.826-.061a1.5,1.5,0,0,1,1.668-.175c.609.25.306.883.231,1.341q-.483,2.96-1.035,5.909c-.236,1.27-1.065,1.58-1.931.656-.357-.382-.438-.246-.7-.019a2.993,2.993,0,0,1-3.555.4C1891.97,1007.138,1891.725,1005.877,1891.752,1004.539Zm2.332-.282c-.013.89.118,1.612.942,1.906a1.643,1.643,0,0,0,2-.75,3.682,3.682,0,0,0,.636-3.1,1.426,1.426,0,0,0-2.576-.686A4.025,4.025,0,0,0,1894.083,1004.257Z" transform="translate(-215.042 -49.34)" fill="#060606"/>
    <path id="Trazado_7313" data-name="Trazado 7313" d="M2014.309,991.485c.465.1,1.328-.165,1.316.793-.009.789-.253,1.469-1.371,1.434-.9-.028-1.671,1.131-1.62,2.025.025.441.279.4.534.385.641-.039.952.222.863.879-.081.592-.157,1.349-.917,1.276-1.07-.1-1.03.582-1.148,1.239-.313,1.743-.585,3.5-.961,5.226a4.133,4.133,0,0,1-2.929,3.289c-.382.119-.84.323-1.063-.2-.157-.366-.269-.925.128-1.128,1.834-.936,1.725-2.731,2.028-4.349.176-.937.358-1.874.492-2.818.073-.51.369-.973-.373-1.469-.527-.352-.314-1.47.322-1.742.78-.333.768-.892.917-1.476C2011.113,992.565,2012.3,991.478,2014.309,991.485Z" transform="translate(-264.594 -46.044)" fill="#060606"/>
    <path id="Trazado_7314" data-name="Trazado 7314" d="M1426.986,892.885a33.97,33.97,0,0,1,8.152-7.2,2.005,2.005,0,0,0,.355-.4,5.718,5.718,0,0,1,2.455-.272q0,3.67,0,7.342A82.423,82.423,0,0,0,1426.986,892.885Z" transform="translate(-14.992 -0.215)" fill="#a7e056"/>
    <path id="Trazado_7315" data-name="Trazado 7315" d="M2019.832,1004.5c.076-3.289,2.151-5.493,5.038-5.351,1.535.076,2.543.805,2.725,1.971a3.03,3.03,0,0,1-1.953,3.487,7.243,7.243,0,0,1-2.547.3c-.279,0-.722-.2-.815.219-.1.439.226.751.618.939a2.467,2.467,0,0,0,2.563-.355c.733-.494,1.054-.036,1.413.455.227.312.138.562-.1.844-.865,1.022-3.387,1.476-4.984.873C2020.437,1007.368,2019.791,1006.254,2019.832,1004.5Zm2.573-1.548a13,13,0,0,0,2.025-.023,1,1,0,0,0,.861-1.185c-.1-.727-.7-.754-1.252-.658C2023.066,1001.257,2022.662,1001.979,2022.4,1002.954Z" transform="translate(-270.172 -49.341)" fill="#060606"/>
    <path id="Trazado_7316" data-name="Trazado 7316" d="M1966.116,1004.451c.1-3.687,2.846-6.023,6.04-5.156a2.93,2.93,0,0,1,2.315,2.544c.558,3.372-1.6,6.285-4.705,6.32C1967.345,1008.186,1966.048,1006.869,1966.116,1004.451Zm6.086-1.391c-.006-.922-.183-1.734-1.162-1.964a1.8,1.8,0,0,0-2.022,1.05,4.407,4.407,0,0,0-.553,2.625,1.47,1.47,0,0,0,.931,1.391,1.623,1.623,0,0,0,1.75-.433A3.777,3.777,0,0,0,1972.2,1003.059Z" transform="translate(-247.051 -49.328)" fill="#060606"/>
    <path id="Trazado_7317" data-name="Trazado 7317" d="M1787.931,1002.128c-.247,1.384-.559,3.17-.887,4.953-.176.957-.931.848-1.605.805-.892-.055-.642-.719-.57-1.223.185-1.3.431-2.6.607-3.9.071-.527.15-1.166-.53-1.381a1.387,1.387,0,0,0-1.452.541,3.43,3.43,0,0,0-.823,1.831c-.169,1.029-.394,2.05-.54,3.082-.15,1.063-.863,1.162-1.693,1.05-.959-.13-.616-.823-.524-1.368.334-1.967.653-3.938,1.044-5.895.275-1.376,1.245-1.685,2.281-.7.586.558.659-.138.9-.271a2.679,2.679,0,0,1,2.7-.253C1787.793,999.895,1787.935,1000.77,1787.931,1002.128Z" transform="translate(-166.846 -49.337)" fill="#060606"/>
    <path id="Trazado_7318" data-name="Trazado 7318" d="M1828.223,1002.178c-.246,1.373-.559,3.113-.87,4.853-.187,1.049-1,.924-1.7.836-.874-.11-.533-.814-.47-1.294.166-1.259.416-2.506.591-3.764.073-.532.16-1.183-.484-1.418a1.435,1.435,0,0,0-1.561.591,5.176,5.176,0,0,0-.929,2.656c-.157.755-.272,1.518-.39,2.281-.153.988-.849,1.047-1.627.969-.968-.1-.68-.765-.582-1.327.349-2.011.672-4.027,1.078-6.027.257-1.268,1.361-1.614,2.231-.65.591.655.669-.081.887-.207a2.651,2.651,0,0,1,2.82-.239C1828.142,999.964,1828.243,1000.861,1828.223,1002.178Z" transform="translate(-184.195 -49.334)" fill="#060606"/>
    <path id="Trazado_7319" data-name="Trazado 7319" d="M1876.083,1005.569c.3-1.614.621-3.352.949-5.089.175-.926.887-.936,1.583-.846.93.121.638.79.542,1.361-.218,1.3-.439,2.593-.632,3.894a1.036,1.036,0,0,0,.427,1.2,1.231,1.231,0,0,0,1.275-.224,2.56,2.56,0,0,0,1.1-1.8c.21-1.159.434-2.316.627-3.478.166-1,.882-1.038,1.641-.954.947.105.667.816.578,1.357-.333,2.013-.7,4.021-1.062,6.028-.08.437-.122.957-.685,1.058a.94.94,0,0,1-1.152-.469c-.378-.738-.585.047-.8.165a3.123,3.123,0,0,1-3.1.326A2.653,2.653,0,0,1,1876.083,1005.569Z" transform="translate(-208.299 -49.536)" fill="#060606"/>
    <path id="Trazado_7320" data-name="Trazado 7320" d="M1446.229,892.14q0-3.671,0-7.342a18.968,18.968,0,0,1,5.741-.132l0,8Z" transform="translate(-23.275)" fill="#96d772"/>
    <path id="Trazado_7321" data-name="Trazado 7321" d="M1692.413,918.3c-1.127,0-2.614.439-3.289-.113-.806-.66-.254-2.208-.275-3.367-.044-2.463-.014-2.464,2.492-2.463,1.316,0,2.633.032,3.947-.012.708-.024.96.208.937.928-.047,1.4-.046,2.813,0,4.218.023.73-.262.951-.953.92-.951-.042-1.905-.011-2.858-.011Z" transform="translate(-127.636 -11.978)" fill="#53b3d3"/>
    <path id="Trazado_7322" data-name="Trazado 7322" d="M1404.328,962.308a30.823,30.823,0,0,0,3.174,9.48c.224.442.44.888.659,1.333a26.037,26.037,0,0,1-8.542-9.4,30.151,30.151,0,0,0,.3-5.265c1.523,1.069,2.524,2.76,4.265,3.568Q1404.257,962.167,1404.328,962.308Z" transform="translate(-3.212 -31.829)" fill="#4fb510"/>
    <path id="Trazado_7323" data-name="Trazado 7323" d="M1447.395,990.97a20.327,20.327,0,0,1-5.469-.509q.409-3.774.818-7.548l5.471.768Z" transform="translate(-21.422 -42.354)" fill="#96d772"/>
    <path id="Trazado_7324" data-name="Trazado 7324" d="M1392.674,930.713a16.939,16.939,0,0,1,1-4.923,5.039,5.039,0,0,1,1.678.427c2.011.588,3.969,1.356,6.033,1.761q-.454,2.459-.906,4.918a4.6,4.6,0,0,1-1.841-.4Z" transform="translate(-0.223 -17.766)" fill="#96d772"/>
    <path id="Trazado_7325" data-name="Trazado 7325" d="M1451.528,991.551q.41-3.644.819-7.289l5.735.068c-.2,1.821-.346,3.651-.639,5.457-.111.686.082.8.642.771l-.087.351A20.819,20.819,0,0,1,1451.528,991.551Z" transform="translate(-25.555 -42.935)" fill="#a7e056"/>
    <path id="Trazado_7326" data-name="Trazado 7326" d="M1991.864,1005.14c-3.392,0-3.4,0-2.828-3.347.437-2.548.9-5.092,1.353-7.637.1-.538.156-1.091.806-1.29,1.264-.386,1.828.1,1.6,1.4-.453,2.592-.893,5.186-1.4,7.767-.14.713-.046.987.732.924a20.474,20.474,0,0,1,2.18-.007c.51.014,1.247-.173,1.169.685-.062.672-.071,1.536-1.159,1.506C1993.5,1005.122,1992.682,1005.14,1991.864,1005.14Z" transform="translate(-256.796 -46.583)" fill="#060606"/>
    <path id="Trazado_7327" data-name="Trazado 7327" d="M1392.451,934.435l5.96,1.788a4.6,4.6,0,0,0,1.841.4c-.377,1.622-.1,3.282-.289,4.915l-7.647-2.192C1391.923,937.693,1392.369,936.069,1392.451,934.435Z" transform="translate(0 -21.488)" fill="#a7e056"/>
    <path id="Trazado_7328" data-name="Trazado 7328" d="M1502.363,952.573a13.173,13.173,0,0,1-1.151,4.093l-8.356-1.364q.675-2.047,1.352-4.1A75.22,75.22,0,0,0,1502.363,952.573Z" transform="translate(-43.345 -28.707)" fill="#83cd8d"/>
    <path id="Trazado_7329" data-name="Trazado 7329" d="M1439.437,982.09q-.409,3.774-.818,7.548a19.784,19.784,0,0,1-4.375-1.079q.41-3.78.819-7.559Z" transform="translate(-18.116 -41.531)" fill="#83cd8d"/>
    <path id="Trazado_7330" data-name="Trazado 7330" d="M1402.134,924.88c-2.064-.406-4.022-1.173-6.033-1.761a5.039,5.039,0,0,0-1.679-.427,14.079,14.079,0,0,1,1.412-4.1c2.241.677,4.483,1.349,6.721,2.037a1.081,1.081,0,0,1,.71.589Q1402.7,923.048,1402.134,924.88Z" transform="translate(-0.976 -14.668)" fill="#83cd8d"/>
    <path id="Trazado_7331" data-name="Trazado 7331" d="M1927.747,997.006c-.133.56-.267,1.113.662.981.493-.07.984.039.919.674-.062.6-.061,1.537-.88,1.45-1.5-.158-1.426.817-1.561,1.74-.073.494-.185.983-.253,1.478-.083.6.1.961.8.946.344-.007.938-.237.869.472-.063.645.042,1.393-.814,1.7-1.983.721-3.547-.5-3.245-2.572.118-.809.323-1.606.432-2.415.073-.542.4-1.042-.507-1.484-.678-.33-.369-1.616.262-1.8,1.037-.3,1.374-1.074,1.919-1.751.288-.357.595-.78,1.116-.6C1928.109,996.045,1927.679,996.6,1927.747,997.006Z" transform="translate(-228.831 -47.896)" fill="#060606"/>
    <path id="Trazado_7332" data-name="Trazado 7332" d="M1959.369,997.881c1.74.2,1.912.387,1.551,1.522-.162.51-.449.841-.964.753-1.029-.176-1.2.438-1.3,1.224-.074.632-.214,1.255-.3,1.885-.076.551-.012,1,.727,1.009.379.006,1.027-.273.934.546-.07.613.017,1.373-.757,1.6a2.939,2.939,0,0,1-2.618-.263,2.086,2.086,0,0,1-.69-2.218c.13-.9.331-1.788.471-2.686.075-.481.375-.981-.516-1.21-.561-.145-.361-1.791.289-1.928a2.492,2.492,0,0,0,1.6-1.3c.347-.505.7-1.277,1.446-.954.62.268.138.972.162,1.48A4.516,4.516,0,0,1,1959.369,997.881Z" transform="translate(-242.518 -47.897)" fill="#060606"/>
    <path id="Trazado_7333" data-name="Trazado 7333" d="M1503.384,949.656a75.231,75.231,0,0,1-8.156-1.366l.873-3.86c.444.066.886.146,1.332.194,2.227.243,4.39.944,6.653.933A14.441,14.441,0,0,1,1503.384,949.656Z" transform="translate(-44.366 -25.79)" fill="#96d772"/>
    <path id="Trazado_7334" data-name="Trazado 7334" d="M1909.925,1004.574c-.925.1-1.17-.281-1.015-1.13.663-3.619,1.312-7.241,1.91-10.871.174-1.06.821-1.2,1.664-1.1,1.08.13.646.935.555,1.476-.582,3.448-1.218,6.887-1.816,10.332C1911.085,1004.074,1910.9,1004.747,1909.925,1004.574Z" transform="translate(-222.41 -46.028)" fill="#060606"/>
    <path id="Trazado_7335" data-name="Trazado 7335" d="M1404.334,918.289a1.082,1.082,0,0,0-.71-.59c-2.238-.688-4.48-1.36-6.721-2.037a13.623,13.623,0,0,1,2.11-3.876c.661.953,1.8.914,2.733,1.245,1.428.5,2.913.85,4.373,1.263Z" transform="translate(-2.043 -11.739)" fill="#6ac0b2"/>
    <path id="Trazado_7336" data-name="Trazado 7336" d="M1432.145,980.124q-.409,3.78-.819,7.559a15.9,15.9,0,0,1-3.862-1.469q.434-3.624.867-7.248A14.34,14.34,0,0,1,1432.145,980.124Z" transform="translate(-15.197 -40.656)" fill="#7bc99b"/>
    <path id="Trazado_7337" data-name="Trazado 7337" d="M1491.81,958.4l8.356,1.364a12.572,12.572,0,0,1-1.5,3.3,52.413,52.413,0,0,0-8.239-1.394Q1491.117,960.033,1491.81,958.4Z" transform="translate(-42.299 -31.802)" fill="#7bc99b"/>
    <path id="Trazado_7338" data-name="Trazado 7338" d="M1425.447,977.589q-.433,3.623-.867,7.248a13.886,13.886,0,0,1-3.816-2.01c.881-1.3.522-2.856.782-4.28a14.428,14.428,0,0,0,.334-2.781C1423.06,976.391,1424.427,976.65,1425.447,977.589Z" transform="translate(-12.314 -39.278)" fill="#6ac0b2"/>
    <path id="Trazado_7339" data-name="Trazado 7339" d="M1493.217,907.909a30.571,30.571,0,0,0-3.435-9.164,4.742,4.742,0,0,1-.88-1.945,32.223,32.223,0,0,1,7.972,8.789c-1.033.914-2.368,1.428-3.293,2.484a1.973,1.973,0,0,0-.257.039A.745.745,0,0,1,1493.217,907.909Z" transform="translate(-41.643 -5.288)" fill="#4fb510"/>
    <path id="Trazado_7340" data-name="Trazado 7340" d="M1504.746,942.9c-2.263.011-4.426-.69-6.652-.933-.446-.048-.889-.129-1.332-.194q.249-1.757.5-3.515c2.535.339,5.015,1.065,7.594,1.095A15.515,15.515,0,0,1,1504.746,942.9Z" transform="translate(-45.026 -23.133)" fill="#a7e056"/>
    <path id="Trazado_7341" data-name="Trazado 7341" d="M1768.265,999.8c-.1.874-.123,1.566-1.217,1.563-1.185,0-1.745.951-2.036,1.915a17.875,17.875,0,0,0-.612,3.341c-.11,1.08-.668,1.4-1.646,1.272-1.075-.14-.658-.887-.566-1.454.313-1.927.659-3.849,1-5.772.1-.545.208-1.138.877-1.226.511-.067,1.089-.183,1.268.632.11.5.362.1.534-.054a3.011,3.011,0,0,1,1.519-.856C1767.95,999.074,1768.433,999.158,1768.265,999.8Z" transform="translate(-159.208 -49.337)" fill="#060606"/>
    <path id="Trazado_7342" data-name="Trazado 7342" d="M1497.117,914.715c.925-1.057,2.26-1.571,3.293-2.484a24.4,24.4,0,0,1,4.314,10.729A35.166,35.166,0,0,0,1497.117,914.715Z" transform="translate(-45.179 -11.93)" fill="#36a12f"/>
    <path id="Trazado_7343" data-name="Trazado 7343" d="M1776.045,1000.807c-.359,2.012-.738,4.287-1.18,6.551-.183.938-.995.784-1.653.724-.743-.068-.621-.62-.529-1.129q.58-3.205,1.151-6.413c.162-.909.818-.943,1.541-.917C1776.012,999.647,1776.1,1000.037,1776.045,1000.807Z" transform="translate(-163.762 -49.545)" fill="#060606"/>
    <path id="Trazado_7344" data-name="Trazado 7344" d="M1919.478,1000.661c-.393,2.231-.775,4.369-1.143,6.508-.173,1.006-.908,1-1.654.92-.961-.108-.638-.8-.543-1.348.355-2.05.738-4.1,1.089-6.148.17-.99.87-1.023,1.635-.964S1919.438,1000.285,1919.478,1000.661Z" transform="translate(-225.484 -49.542)" fill="#060606"/>
    <path id="Trazado_7345" data-name="Trazado 7345" d="M2003.436,1008.077c-.875.091-1.16-.261-.994-1.118.394-2.044.761-4.093,1.083-6.149a1.274,1.274,0,0,1,1.731-1.18c.978.2.579.99.492,1.543-.3,1.921-.681,3.83-1.008,5.747C2004.608,1007.688,2004.317,1008.217,2003.436,1008.077Z" transform="translate(-262.669 -49.527)" fill="#060606"/>
    <path id="Trazado_7346" data-name="Trazado 7346" d="M1813.933,1008.089c-.8.07-1.134-.217-.982-1.027q.6-3.2,1.145-6.414c.162-.963.8-1.113,1.592-1.021,1.058.121.685.922.6,1.466-.306,1.966-.7,3.919-1.032,5.881C1815.122,1007.764,1814.774,1008.234,1813.933,1008.089Z" transform="translate(-181.109 -49.539)" fill="#060606"/>
    <path id="Trazado_7347" data-name="Trazado 7347" d="M1396.966,954.156a30.151,30.151,0,0,1-.3,5.265,28.585,28.585,0,0,1-3.909-10.958A42.217,42.217,0,0,0,1396.966,954.156Z" transform="translate(-0.258 -27.526)" fill="#36a12f"/>
    <path id="Trazado_7348" data-name="Trazado 7348" d="M1409.6,897.3c.638.3.464.894.484,1.406a3.041,3.041,0,0,0,.274,1.685l-6.854,2.758A24.749,24.749,0,0,1,1409.6,897.3Z" transform="translate(-4.885 -5.505)" fill="#36a12f"/>
    <path id="Trazado_7349" data-name="Trazado 7349" d="M1920.087,994.981c-.871,0-1.392-.37-1.348-1.2a1.716,1.716,0,0,1,1.636-1.805,1.081,1.081,0,0,1,1.277,1.211A1.663,1.663,0,0,1,1920.087,994.981Z" transform="translate(-226.658 -46.251)" fill="#060606"/>
    <path id="Trazado_7350" data-name="Trazado 7350" d="M2006.343,994.988c-.85-.026-1.333-.439-1.263-1.258a1.706,1.706,0,0,1,1.689-1.753,1.08,1.08,0,0,1,1.221,1.265A1.66,1.66,0,0,1,2006.343,994.988Z" transform="translate(-263.821 -46.255)" fill="#060606"/>
    <path id="Trazado_7351" data-name="Trazado 7351" d="M1816.942,994.982c-.87,0-1.383-.384-1.334-1.211a1.714,1.714,0,0,1,1.646-1.8,1.081,1.081,0,0,1,1.268,1.221A1.662,1.662,0,0,1,1816.942,994.982Z" transform="translate(-182.267 -46.252)" fill="#060606"/>
    <path id="Trazado_7352" data-name="Trazado 7352" d="M1776.495,994.991c-.822-.052-1.273-.495-1.179-1.3a1.7,1.7,0,0,1,1.733-1.705,1.082,1.082,0,0,1,1.171,1.311A1.661,1.661,0,0,1,1776.495,994.991Z" transform="translate(-164.92 -46.257)" fill="#060606"/>
    <path id="Trazado_7353" data-name="Trazado 7353" d="M1499,974.542l.349-.268C1499.287,974.438,1499.231,974.606,1499,974.542Z" transform="translate(-45.988 -38.636)" fill="#4fb510"/>
    <path id="Trazado_7354" data-name="Trazado 7354" d="M1403.413,907.542l-.2.211Z" transform="translate(-4.757 -9.912)" fill="#36a12f"/>
    <path id="Trazado_7355" data-name="Trazado 7355" d="M1498.534,975.005c0-.191.114-.272.287-.295C1498.862,974.943,1498.811,975.085,1498.534,975.005Z" transform="translate(-45.789 -38.824)" fill="#4fb510"/>
    <path id="Trazado_7356" data-name="Trazado 7356" d="M1462.529,983.736c2.838-.091,5.634-.586,8.453-.853-1.372,2.143-3.5,3.5-5.374,5.111a12.176,12.176,0,0,1-3.076,1.971c-.56.029-.753-.085-.642-.771C1462.183,987.387,1462.326,985.557,1462.529,983.736Z" transform="translate(-30.003 -42.341)" fill="#b5e741"/>
    <path id="Trazado_7357" data-name="Trazado 7357" d="M1477.973,982.634c.059-.193.191-.188.345-.126Z" transform="translate(-36.938 -42.163)" fill="#6ac0b2"/>
  </g>
</svg>
