<svg xmlns="http://www.w3.org/2000/svg" width="194" height="195" viewBox="0 0 194 195">
  <g id="Grupo_13891" data-name="Grupo 13891" transform="translate(-1339 -4042)">
    <ellipse id="Elipse_380" data-name="Elipse 380" cx="97" cy="97.5" rx="97" ry="97.5" transform="translate(1339 4042)" fill="#fff"/>
    <g id="Grupo_13832" data-name="Grupo 13832" transform="translate(1376.63 4076.196)">
      <g id="Grupo_13831" data-name="Grupo 13831" transform="translate(0)">
        <rect id="Rectángulo_15169" data-name="Rectángulo 15169" width="14.634" height="28.328" transform="translate(2.39 88.709)" fill="#53b3d3" opacity="0.35"/>
        <circle id="Elipse_382" data-name="Elipse 382" cx="21.919" cy="21.919" r="21.919" transform="translate(51.236 33.499)" fill="#319e32" opacity="0.35"/>
        <g id="Grupo_13830" data-name="Grupo 13830" transform="translate(0)">
          <path id="Trazado_7738" data-name="Trazado 7738" d="M1358.207,1325.375q-15.675,0-31.35-.01c-.867,0-1.56.036-1.947,1.031a1.726,1.726,0,0,1-1.743.949c-5.225,0-10.45.014-15.675-.01a1.945,1.945,0,0,1-2.141-2.165q-.025-13.7,0-27.4a1.97,1.97,0,0,1,2.252-2.181q7.652-.028,15.3,0c1.616.005,2.306.725,2.352,2.343.045,1.6.045,1.6,1.652,1.6q4.011,0,8.023,0c1.664,0,2-.345,2-2.042,0-19.542.061-39.085-.041-58.627a10.185,10.185,0,0,1,8.286-10.3,35.034,35.034,0,0,1,5.545-.116c1.563-.023,3.128-.05,4.69.012.957.038,1.308-.264,1.289-1.259-.055-2.879-.033-5.76-.014-8.639a9.809,9.809,0,0,1,9.9-9.859q11.911-.032,23.822,0a9.809,9.809,0,0,1,9.891,9.864c.019,2.839.052,5.679-.018,8.516-.028,1.112.359,1.407,1.421,1.383,2.8-.063,5.595-.033,8.393-.017a9.8,9.8,0,0,1,9.95,9.93q.024,27.4-.011,54.8a2.951,2.951,0,0,0,1.106,2.522,8.119,8.119,0,0,1-1.18,13.318c-5.613,3.352-11.37,6.463-17.068,9.673-3.548,2-7.112,3.969-10.644,6a5.173,5.173,0,0,1-2.689.708Q1373.882,1325.36,1358.207,1325.375Zm-17.149-31.156.428.324c.308-.433.608-.872.927-1.3a4.3,4.3,0,0,1,3.867-1.651c8.309.075,16.619.032,24.929.04a10.993,10.993,0,0,1,2.088.124,9,9,0,0,1,6.568,12.358c-.557,1.332-.557,1.335.935,1.337,1.687,0,3.375-.055,5.059.018a7.916,7.916,0,0,0,3.79-.849c7.378-3.443,14.78-6.837,22.173-10.248a5.787,5.787,0,0,1,2.717-.726c1.209.073,1.414-.468,1.41-1.532-.035-8.351-.02-16.7-.02-25.052q0-13.945,0-27.891a6.177,6.177,0,0,0-2.7-5.628,7.279,7.279,0,0,0-4.135-.989q-24.25.005-48.5,0c-4.4,0-8.8-.018-13.2.009a5.923,5.923,0,0,0-5.55,3.042,7.142,7.142,0,0,0-.779,3.575q0,27.089,0,54.177Zm16.641,27.033q15.362,0,30.724.012a4.744,4.744,0,0,0,2.45-.649c5.578-3.169,11.174-6.3,16.764-9.449,3.3-1.856,6.6-3.7,9.885-5.575a4.137,4.137,0,0,0-1.408-7.8,5.375,5.375,0,0,0-3.088.667q-11.369,5.242-22.728,10.507a6.526,6.526,0,0,1-2.848.627c-10.036-.019-20.072,0-30.107-.018-2.994-.005-2.55.413-2.657-2.6-.042-1.191.347-1.552,1.535-1.537,4.893.058,9.788.025,14.683.022a5.607,5.607,0,0,0,3.6-1.062,4.76,4.76,0,0,0,1.57-5.417,4.9,4.9,0,0,0-4.927-3.211c-8.1-.02-16.205,0-24.308-.02a2.239,2.239,0,0,0-1.742.718c-2.045,2.084-4.137,4.122-6.179,6.21a3.091,3.091,0,0,1-2.407,1c-3.29-.037-6.582.026-9.871-.036-1.089-.021-1.411.32-1.4,1.4.051,4.894.068,9.79-.008,14.683-.02,1.295.411,1.567,1.622,1.562C1337.133,1321.233,1347.416,1321.252,1357.7,1321.252Zm-48.238-9.787c0,3.538.018,7.076-.013,10.614-.008.84.255,1.172,1.13,1.161,3.126-.037,6.254-.042,9.38,0,.933.013,1.2-.33,1.193-1.226q-.041-10.552,0-21.105c0-.9-.26-1.239-1.193-1.225-3.085.044-6.172.051-9.256,0-1-.018-1.27.339-1.258,1.291C1309.487,1304.471,1309.461,1307.968,1309.461,1311.465Zm68.949-94.878c3.825,0,7.651-.008,11.477,0,1.846.005,2.5.68,2.513,2.552.011,2.263-.017,4.525.008,6.788.032,2.837-.466,2.448,2.591,2.52.933.022,1.209-.325,1.194-1.223-.043-2.714.016-5.43-.024-8.145a5.924,5.924,0,0,0-6.3-6.261q-11.353-.05-22.707,0c-3.881.015-6.3,2.463-6.347,6.345-.027,2.262-.023,4.525,0,6.787.027,2.808-.419,2.412,2.491,2.5,1.076.034,1.316-.4,1.3-1.375-.05-2.632-.024-5.265-.014-7.9.007-1.943.651-2.589,2.595-2.594C1370.923,1216.581,1374.667,1216.587,1378.41,1216.587Zm.083,11.847c2.88,0,5.76-.021,8.639.013.84.01,1.184-.254,1.161-1.13-.048-1.85-.042-3.7,0-5.554.017-.817-.313-1.068-1.1-1.065q-8.7.031-17.4,0c-.784,0-1.114.248-1.1,1.065.039,1.85.044,3.7,0,5.553-.022.876.322,1.14,1.162,1.13C1372.733,1228.413,1375.613,1228.434,1378.493,1228.434Z" transform="translate(-1305.337 -1208.678)" fill="#53b3d3"/>
          <path id="Trazado_7739" data-name="Trazado 7739" d="M1502.615,1328.4a23.784,23.784,0,1,1-23.63-23.873A23.675,23.675,0,0,1,1502.615,1328.4Zm-23.785,19.566c11.062-.262,19.619-8.682,19.6-19.688a19.6,19.6,0,0,0-39.2,0C1459.2,1339.294,1467.8,1347.7,1478.83,1347.961Z" transform="translate(-1405.676 -1272.915)" fill="#319e32"/>
          <path id="Trazado_7740" data-name="Trazado 7740" d="M1498.944,1362.264c-1.192,0-2.385.01-3.577,0-1.789-.017-2.475-.688-2.494-2.446-.015-1.48-.028-2.961,0-4.44.016-.741-.271-1.033-1.015-1.017-1.479.031-2.96.018-4.44,0-1.716-.018-2.432-.7-2.446-2.368q-.029-3.638,0-7.277c.013-1.672.725-2.352,2.442-2.37,1.48-.015,2.961-.027,4.44,0,.74.016,1.034-.268,1.018-1.013-.031-1.521-.023-3.042,0-4.563.023-1.606.735-2.311,2.362-2.324q3.638-.028,7.277,0c1.673.013,2.355.725,2.373,2.44.016,1.48.027,2.961,0,4.44-.016.738.265,1.035,1.012,1.02,1.521-.031,3.042-.023,4.563,0,1.6.023,2.313.736,2.325,2.362q.029,3.638,0,7.277c-.013,1.671-.729,2.355-2.441,2.373-1.48.015-2.961.027-4.44,0-.74-.016-1.034.268-1.019,1.013.031,1.52.023,3.042,0,4.563-.024,1.6-.739,2.3-2.365,2.325C1501.329,1362.279,1500.137,1362.264,1498.944,1362.264Zm-1.952-20.33c0,.7.009,1.4,0,2.1-.026,1.709-.7,2.4-2.383,2.432-.986.016-1.972-.011-2.958.007-2.891.053-2.5-.513-2.568,2.661-.018.879.327,1.15,1.163,1.124,1.436-.045,2.876-.023,4.313-.008,1.709.018,2.4.7,2.431,2.382.016.986-.01,1.972.007,2.958.052,2.894-.509,2.5,2.661,2.568.879.018,1.15-.327,1.124-1.163-.045-1.436-.023-2.876-.008-4.314.018-1.711.7-2.4,2.38-2.431.986-.016,1.973.01,2.958-.007,2.9-.052,2.5.508,2.57-2.66.018-.877-.324-1.153-1.161-1.126-1.4.046-2.793.02-4.19.009-1.874-.013-2.54-.666-2.557-2.5-.011-1.15,0-2.3,0-3.451,0-1.941,0-1.941-1.923-1.94-1.851,0-1.852,0-1.852,1.888Q1496.993,1341.2,1496.992,1341.935Z" transform="translate(-1425.726 -1292.964)" fill="#319e32"/>
        </g>
      </g>
    </g>
  </g>
</svg>
