<svg xmlns="http://www.w3.org/2000/svg" width="194" height="195" viewBox="0 0 194 195">
  <g id="Grupo_13890" data-name="Grupo 13890" transform="translate(-863 -4042)">
    <ellipse id="Elipse_380" data-name="Elipse 380" cx="97" cy="97.5" rx="97" ry="97.5" transform="translate(863 4042)" fill="#fff"/>
    <g id="Grupo_13829" data-name="Grupo 13829" transform="translate(888.845 4063.886)">
      <g id="Grupo_13828" data-name="Grupo 13828" transform="translate(12 0)">
        <circle id="Elipse_381" data-name="Elipse 381" cx="28.574" cy="28.574" r="28.574" transform="translate(32.046 32.594)" fill="#319e32" opacity="0.35"/>
        <g id="Grupo_13827" data-name="Grupo 13827" transform="translate(0 0)">
          <path id="Trazado_7732" data-name="Trazado 7732" d="M802.261,1497.558c-9.6-2.265-19.017-5.212-28.522-7.831a9.229,9.229,0,0,0-7.792.878,10.494,10.494,0,0,1-1.5.808c-1.29.542-2.139,1.222-2.062,2.883.065,1.4-1.093,2.241-2.718,2.215-3.753-.06-7.505-.2-11.258-.312-1.745-.051-3.49-.1-5.235-.156-1.989-.067-2.9-.955-2.851-2.933q.409-16.956.865-33.91c.031-1.177.118-2.353.17-3.53.077-1.737.947-2.7,2.713-2.679,3.928.053,7.854.216,11.781.331,1.57.046,3.141.084,4.712.13,2.06.059,2.934.948,2.95,3,.021,2.7.01,2.672,2.522,1.707a27.346,27.346,0,0,1,22.85.889,27.631,27.631,0,0,0,13.189,3.145c4.445-.082,8.9.157,13.344.454a13.271,13.271,0,0,1,10.284,5.983c.722,1.029,1.277,1.081,2.332.569,5.106-2.48,10.241-4.9,15.385-7.3,5.1-2.377,10.163-1.427,13.734,2.525a10.171,10.171,0,0,1,.886,1.134c1.252,1.858,1.024,3.046-.859,4.269q-10.329,6.707-20.673,13.391c-5.133,3.321-10.326,6.553-15.388,9.98a26.6,26.6,0,0,1-10.768,4.172c-.255.042-.5.127-.754.192Zm19.029-18.205v-.361c-3.8,0-7.6.034-11.393-.01-3.187-.038-6.373-.157-9.559-.258-1.77-.056-2.863-.995-2.859-2.407.005-1.46,1.162-2.4,3-2.368,1.745.032,3.489.143,5.234.2,5.455.169,10.911.306,16.364.511,1.083.041,1.307-.241.939-1.248a9.619,9.619,0,0,0-8.782-6.183c-4.628-.109-9.256-.194-13.883-.335-1.524-.047-3.049-.183-4.564-.367-3.184-.386-5.947-1.915-8.8-3.242a23.737,23.737,0,0,0-22.391.74,2.018,2.018,0,0,0-1.365,1.857c-.131,6.548-.338,13.094-.505,19.642-.038,1.463.037,1.525,1.312.791a13.407,13.407,0,0,1,10.982-1.11c8.338,2.436,16.685,4.858,25.093,7.032a21.741,21.741,0,0,0,17.856-2.638c1.433-.921,2.869-1.838,4.3-2.764q14.743-9.539,29.48-19.086c.349-.226.913-.361.885-.868-.03-.554-.615-.7-1.032-.891a6.632,6.632,0,0,0-5.822,0c-5.1,2.4-10.161,4.872-15.3,7.181-1.591.715-2.524,1.394-2.258,3.391.258,1.944-.9,2.85-2.876,2.8C824,1479.323,822.644,1479.353,821.29,1479.353Zm-62.664-17.7h.056c0-.742-.049-1.489.012-2.225.083-1-.265-1.385-1.32-1.394-3.271-.026-6.545-.1-9.813-.264-1.285-.063-1.61.39-1.632,1.627-.088,4.928-.311,9.854-.44,14.783-.14,5.366-.229,10.733-.351,16.1-.016.712.15,1.158,1,1.174q5.3.1,10.6.271c.858.028,1.127-.318,1.147-1.152Q758.231,1476.108,758.627,1461.649Z" transform="translate(-740.324 -1363.254)" fill="#53b3d3"/>
          <path id="Trazado_7733" data-name="Trazado 7733" d="M821.886,1312.4a32.061,32.061,0,1,1,32.009,32.067A31.935,31.935,0,0,1,821.886,1312.4Zm32.043,27.276a27.349,27.349,0,1,0-27.348-27.306A27.111,27.111,0,0,0,853.93,1339.68Z" transform="translate(-793.321 -1251.039)" fill="#319e32"/>
          <path id="Trazado_7734" data-name="Trazado 7734" d="M911.375,1209.419c0,3.183.009,6.366-.009,9.55a6.291,6.291,0,0,1-.207,1.675,2.132,2.132,0,0,1-2.121,1.639,2.214,2.214,0,0,1-2.26-1.643,5,5,0,0,1-.2-1.68q0-9.485,0-18.969a6.3,6.3,0,0,1,.1-1.3,2.325,2.325,0,0,1,4.583.01,11.658,11.658,0,0,1,.105,2.083C911.381,1203.662,911.375,1206.541,911.375,1209.419Z" transform="translate(-848.355 -1196.765)" fill="#319e32"/>
          <path id="Trazado_7735" data-name="Trazado 7735" d="M953.724,1235.368c0-1.481-.027-2.963.009-4.443.042-1.708.939-2.71,2.356-2.723a2.4,2.4,0,0,1,2.407,2.678q.062,4.508,0,9.016c-.023,1.75-1.031,2.863-2.424,2.833s-2.284-1.14-2.348-2.919c0-.087,0-.174,0-.261Q953.722,1237.458,953.724,1235.368Z" transform="translate(-878.98 -1217.192)" fill="#319e32"/>
          <path id="Trazado_7736" data-name="Trazado 7736" d="M864.189,1235.422c0,1.524.04,3.049-.01,4.572-.055,1.665-1.036,2.742-2.388,2.734s-2.34-1.082-2.365-2.754q-.068-4.571,0-9.144a2.394,2.394,0,0,1,2.321-2.629c1.412-.029,2.353.99,2.446,2.649,0,.087,0,.174,0,.261q0,2.156,0,4.311Z" transform="translate(-817.692 -1217.191)" fill="#319e32"/>
          <path id="Trazado_7737" data-name="Trazado 7737" d="M886.214,1341.091c-.028-2.184.74-3.19,2.113-3.289q2.152-.156,2.518,2.528a4.9,4.9,0,0,0,4.741,4.549,4.794,4.794,0,0,0,.511-9.573,10.57,10.57,0,0,1-6.726-2.521,9.481,9.481,0,0,1,2.226-15.668,2.082,2.082,0,0,0,1.5-2.227,2.422,2.422,0,0,1,2.346-2.749,2.381,2.381,0,0,1,2.356,2.611c-.008,1.222.478,1.686,1.557,2.148a9.177,9.177,0,0,1,5.867,8.287,2.319,2.319,0,0,1-2.105,2.788c-1.374.109-2.29-.771-2.507-2.408-.371-2.8-2.139-4.594-4.6-4.68a4.735,4.735,0,0,0-5.055,3.992,4.807,4.807,0,0,0,4.614,5.6c4.28.226,7.416,2.179,9.047,6.2a9.431,9.431,0,0,1-5.331,12.209,1.9,1.9,0,0,0-1.473,2.068,2.385,2.385,0,1,1-4.716-.076,2.075,2.075,0,0,0-1.473-2.236A9.209,9.209,0,0,1,886.214,1341.091Z" transform="translate(-835.095 -1271.734)" fill="#319e32"/>
        </g>
      </g>
    </g>
  </g>
</svg>
