<svg xmlns="http://www.w3.org/2000/svg" width="194" height="195" viewBox="0 0 194 195">
  <g id="Grupo_13889" data-name="Grupo 13889" transform="translate(-387 -4042)">
    <ellipse id="Elipse_380" data-name="Elipse 380" cx="97" cy="97.5" rx="97" ry="97.5" transform="translate(387 4042)" fill="#fff"/>
    <g id="Grupo_13826" data-name="Grupo 13826" transform="translate(419.465 4070.886)">
      <g id="Grupo_13825" data-name="Grupo 13825" transform="translate(0 0)">
        <path id="Trazado_7728" data-name="Trazado 7728" d="M206.605,1417.563l9.079-8.806,17.608-10v-26.232H153.277l.479,45.038Z" transform="translate(-149.914 -1309)" fill="#319e32" opacity="0.35"/>
        <g id="Grupo_13824" data-name="Grupo 13824">
          <path id="Trazado_7729" data-name="Trazado 7729" d="M212.536,1183.493c2.82,1.049,5,2.748,5.874,5.777a9.373,9.373,0,0,1,.371,2.645c-.006,3.89.013,7.781-.007,11.672a8.026,8.026,0,0,1-4.468,7.538,1.355,1.355,0,0,0-.892,1.462,1.067,1.067,0,0,1,0,.268c-.612,4.23.655,7.712,3.494,10.989,3.388,3.911,6.275,8.254,9.408,12.388a15.281,15.281,0,0,1,3.21,9.6c-.041,6.886-.014,13.773-.009,20.66,0,1.514.053,1.537,1.343.8,3.456-1.972,6.847-4.068,10.381-5.889a21.467,21.467,0,0,1,31.211,17.4c.676,9.016-3.079,15.969-10.766,20.545-10.947,6.517-22.013,12.841-33.115,19.092a21.359,21.359,0,0,1-27.743-6.644,2.668,2.668,0,0,0-2.517-1.319c-13.639.038-27.279-.071-40.917.062a13.776,13.776,0,0,1-14.079-13.805c-.074-17.037-.039-34.075-.01-51.113a15.08,15.08,0,0,1,3.2-9.338c4.065-5.335,8.052-10.729,12.1-16.08a3.524,3.524,0,0,0,.8-2.335c-.049-1.743-.03-3.488-.009-5.231a1.478,1.478,0,0,0-.858-1.5,7.828,7.828,0,0,1-4.4-6.767,104.17,104.17,0,0,1,.043-13.4,7.867,7.867,0,0,1,5.816-7.262c.168-.057.327-.141.49-.213Zm-26.194,66.1c-11.889,0-23.779.017-35.668-.025-1.265,0-1.69.322-1.685,1.641q.07,18.035,0,36.07c0,1.242.374,1.59,1.6,1.587q23.8-.055,47.6,0a2.235,2.235,0,0,0,2.178-1.171,18.475,18.475,0,0,1,6.276-6.312q7.887-4.7,15.861-9.254a2.249,2.249,0,0,0,1.291-2.236c-.043-6.168-.019-12.336-.022-18.5,0-1.785-.007-1.79-1.77-1.79Q204.177,1249.593,186.343,1249.594Zm0-5.555h35.408c.358,0,.715-.012,1.073,0,.739.021.933-.294.741-1.006a9.391,9.391,0,0,0-1.636-3.2c-4-5.328-8.009-10.646-11.973-16a2.46,2.46,0,0,0-2.249-1.09c-5.409.044-10.819.021-16.228.021-2.548,0-5.1.034-7.645-.02a2.712,2.712,0,0,1-2.791-3.282c.246-1.426,1.366-2.244,3.176-2.247,6.572-.011,13.144.042,19.716-.022,4.454-.043,3.652.936,3.757-3.954.021-.952-.391-1.22-1.29-1.219q-20.051.028-40.1,0c-.857,0-1.21.285-1.191,1.163.039,1.787-.07,3.581.033,5.363a6.235,6.235,0,0,1-1.453,4.319c-4.194,5.516-8.331,11.074-12.494,16.614a10.567,10.567,0,0,0-1.673,2.886c-.537,1.567-.475,1.674,1.144,1.674Q168.5,1244.04,186.34,1244.039Zm.035-37.566q11.595,0,23.189-.005c2.581,0,3.474-.906,3.482-3.447q.015-5.3,0-10.589c-.006-2.557-.891-3.454-3.457-3.472-2.949-.02-5.9-.006-8.847-.006q-18.5,0-37,0c-3.2,0-3.994.785-4,3.921q0,4.893,0,9.785c0,2.965.848,3.81,3.837,3.812Q174.982,1206.479,186.375,1206.473Zm16.189,92.54a24.393,24.393,0,0,0,.268,3.514,15.882,15.882,0,0,0,23.513,10.7c4.551-2.479,8.984-5.174,13.493-7.731.793-.45,1.013-.855.465-1.654s-1.01-1.686-1.5-2.538q-6.6-11.437-13.187-22.883c-.462-.806-.865-1.1-1.776-.564-4.58,2.7-9.25,5.256-13.774,8.047A15.106,15.106,0,0,0,202.564,1299.013Zm64.362-17.646c0-12.98-13.161-20.566-23.855-14.577-4.053,2.27-8.041,4.654-12.09,6.932-.939.528-1.009,1.019-.493,1.906q7.408,12.744,14.751,25.524c.354.615.637.843,1.342.428,4.35-2.558,8.8-4.953,13.07-7.641A15.114,15.114,0,0,0,266.926,1281.367Zm-93.641,13.03c-7.551,0-15.1.03-22.654-.028-1.324-.01-1.651.428-1.641,1.688.043,5.39,3.084,8.805,8.429,8.847,12.957.1,25.916.03,38.873.049,1,0,1.243-.375,1.026-1.31a18.606,18.606,0,0,1-.121-7.845c.236-1.2-.143-1.427-1.26-1.421C188.388,1294.416,180.837,1294.4,173.285,1294.4Z" transform="translate(-143.268 -1183.493)" fill="#53b3d3"/>
          <path id="Trazado_7730" data-name="Trazado 7730" d="M252.4,1417.5c-1.072,0-2.148.049-3.216-.013-.984-.057-1.356.3-1.329,1.3.054,2.054.017,4.111.012,6.166a3.151,3.151,0,0,1-1.184,2.715,2.73,2.73,0,0,1-4.352-1.733c-.436-2.163-.131-4.366-.184-6.55-.045-1.884-.014-1.886-1.95-1.888-1.877,0-3.754.021-5.63-.011a2.763,2.763,0,0,1-3.029-2.712c-.032-1.665,1.157-2.8,3.05-2.826,2.1-.033,4.2-.042,6.3,0,.93.019,1.28-.332,1.261-1.253-.039-1.786-.022-3.575,0-5.362a9.466,9.466,0,0,1,.158-1.727,2.771,2.771,0,0,1,5.511.232c.1,1.018.047,2.052.053,3.08.006,1.117.073,2.24-.017,3.35-.1,1.256.289,1.766,1.628,1.694,1.961-.1,3.931-.042,5.9-.021,1.9.021,3.149,1.107,3.187,2.72.04,1.649-1.259,2.8-3.214,2.828C254.369,1417.515,253.385,1417.5,252.4,1417.5Z" transform="translate(-201.875 -1328.061)" fill="#319e32"/>
          <path id="Trazado_7731" data-name="Trazado 7731" d="M229.116,1286.615a2.8,2.8,0,0,1-2.712,2.773,2.76,2.76,0,1,1-.028-5.518A2.8,2.8,0,0,1,229.116,1286.615Z" transform="translate(-196.574 -1250.138)" fill="#53b3d3"/>
        </g>
      </g>
    </g>
  </g>
</svg>
