<?xml version="1.0" encoding="UTF-8"?>
<svg xmlns="http://www.w3.org/2000/svg" xmlns:xlink="http://www.w3.org/1999/xlink" width="194" height="194" viewBox="0 0 194 194">
  <defs>
    <filter id="Elipse_368" x="0" y="0" width="194" height="194">
      <feOffset dy="3"></feOffset>
      <feGaussianBlur stdDeviation="3" result="blur"></feGaussianBlur>
      <feFlood flood-opacity="0.161"></feFlood>
      <feComposite operator="in" in2="blur"></feComposite>
      <feComposite in="SourceGraphic"></feComposite>
    </filter>
  </defs>
  <g id="Grupo_13885" data-name="Grupo 13885" transform="translate(-421 -1606.73)">
    <g transform="matrix(1, 0, 0, 1, 421, 1606.73)" filter="url(#Elipse_368)">
      <circle id="Elipse_368-2" data-name="Elipse 368" cx="88" cy="88" r="88" transform="translate(9 6)" fill="#fff"></circle>
    </g>
    <g id="Grupo_13816" data-name="Grupo 13816" transform="translate(-75.479 93.612)">
      <g id="Grupo_13815" data-name="Grupo 13815" transform="translate(542 1542)">
        <circle id="Elipse_379" data-name="Elipse 379" cx="30.25" cy="30.25" r="30.25" transform="translate(22.196 20.638)" fill="#319e32" opacity="0.35"></circle>
        <g id="Grupo_13814" data-name="Grupo 13814" transform="translate(0 0)">
          <path id="Trazado_7700" data-name="Trazado 7700" d="M151.3,454.282a4.159,4.159,0,0,1-1.691-2.585c-1.057-4.054-2.182-8.09-3.216-12.149-.248-.973-.638-1.172-1.582-.91-4.118,1.142-8.258,2.208-12.382,3.329a2.76,2.76,0,0,1-3.294-4.25c5.046-8.723,10.058-17.465,15.14-26.167.676-1.157.764-1.866-.3-2.9a13.558,13.558,0,0,1-3.9-7.826,10.506,10.506,0,0,0-3.784-6.676,14.672,14.672,0,0,1-4.579-17.05,10.8,10.8,0,0,0,0-7.558c-2.338-6.574-.726-12.569,4.556-17.058a10.773,10.773,0,0,0,3.827-6.8,14.707,14.707,0,0,1,12.069-12.169,11.432,11.432,0,0,0,7.184-4.133,14.634,14.634,0,0,1,16.676-4.339,10.728,10.728,0,0,0,7.672.052,14.768,14.768,0,0,1,17.233,4.737,10.484,10.484,0,0,0,6.49,3.639,14.581,14.581,0,0,1,12.335,12.315,11.115,11.115,0,0,0,4.1,6.922,14.511,14.511,0,0,1,4.559,15.957,12.913,12.913,0,0,0,0,9.247,14.43,14.43,0,0,1-4.444,15.874,11.39,11.39,0,0,0-4.265,7.383,12.964,12.964,0,0,1-3.805,7.457c-.97.953-.9,1.629-.272,2.7,5.118,8.778,10.177,17.592,15.267,26.387a2.951,2.951,0,0,1,.194,3.231c-.661,1.086-1.819,1.449-3.366,1.042-4.134-1.087-8.27-2.167-12.383-3.325-1.065-.3-1.463-.087-1.735,1.007-.98,3.942-2.08,7.854-3.11,11.784a4.377,4.377,0,0,1-1.766,2.828h-2.287a8.039,8.039,0,0,1-1.644-2.073q-8.238-14.3-16.506-28.587c-.321-.556-.6-1.144-1.335-1.231a21.935,21.935,0,0,1-4.15-1.151,9.321,9.321,0,0,0-5.983.061,15.882,15.882,0,0,1-3.029.916,2.714,2.714,0,0,0-2.195,1.62Q164.053,437,156.435,450.121c-.843,1.454-1.493,3.055-2.852,4.161Zm37.519-37.133a9.673,9.673,0,0,0,8.108-3.9,14.715,14.715,0,0,1,9.384-5.319,9.319,9.319,0,0,0,8.138-7.789,16.363,16.363,0,0,1,5.815-10.231c3.5-2.949,4.423-6.715,2.859-10.985a15.842,15.842,0,0,1-.034-11.165c1.608-4.5.614-8.147-3.053-11.262a15.647,15.647,0,0,1-5.545-9.832,9.391,9.391,0,0,0-7.873-7.91,15.629,15.629,0,0,1-9.763-5.423c-3.355-3.9-6.795-4.78-11.694-3.072A15.235,15.235,0,0,1,174.6,330.2c-4.575-1.672-8.406-.7-11.509,3.026a15.531,15.531,0,0,1-9.585,5.486c-4.42.781-7.329,3.466-8.089,7.816a16.532,16.532,0,0,1-5.857,10.209,9.22,9.22,0,0,0-2.821,10.9,15.6,15.6,0,0,1-.032,11.391A9.354,9.354,0,0,0,139.682,390a15.39,15.39,0,0,1,5.629,9.638,9.449,9.449,0,0,0,8.256,8.278,15.418,15.418,0,0,1,9.648,5.612A9.387,9.387,0,0,0,174.3,416.5a15.064,15.064,0,0,1,11.146-.038A8.055,8.055,0,0,0,188.816,417.149Zm34.373,18.075c-.37-.7-.552-1.072-.759-1.431q-5.459-9.454-10.923-18.906c-1.277-2.211-1.263-2.112-3.778-1.776a10.775,10.775,0,0,0-7.264,4.2,12.89,12.89,0,0,1-5.7,4.109c-1.024.375-1.165.725-.6,1.687,3.991,6.833,7.924,13.7,11.886,20.549.153.265.227.662.737.664.118-.39.248-.784.356-1.183.751-2.776,1.474-5.56,2.252-8.329.583-2.075,1.751-2.733,3.811-2.234.493.119.983.255,1.473.386Zm-86.292-.212a3.872,3.872,0,0,0,1.813-.275c2.7-.712,5.388-1.458,8.09-2.154,2.059-.53,3.237.151,3.825,2.207.535,1.869,1.009,3.757,1.518,5.634.359,1.323.734,2.641,1.128,4.058.241-.21.364-.274.423-.375q6.2-10.712,12.393-21.423c.417-.719,0-.85-.518-1.043a15.726,15.726,0,0,1-6.844-5.079,8.849,8.849,0,0,0-4.963-3.109,19.336,19.336,0,0,1-2.351-.5c-1.2-.45-1.819-.037-2.413,1.027-2.124,3.8-4.34,7.557-6.517,11.332C140.646,428.49,138.818,431.674,136.9,435.012Z" transform="translate(-128.527 -324.047)" fill="#53b3d3"></path>
          <path id="Trazado_7701" data-name="Trazado 7701" d="M248.768,411.307c.246,16.489-12.588,31.172-29.506,33a33.185,33.185,0,0,1-16.632-63.5,3.71,3.71,0,0,1,2.458-.393,2.641,2.641,0,0,1,.576,4.886c-1.418.755-2.936,1.308-4.308,2.164-8.007,5-12.529,12.16-13.379,21.587a27.845,27.845,0,0,0,22.483,29.627c15.073,2.934,30.155-7.56,32.6-22.668a27.821,27.821,0,0,0-16.737-30.372c-1.822-.756-2.527-2.2-1.892-3.7s2.171-2.035,3.977-1.223c11.38,5.115,18.124,13.809,20.112,26.16A28.3,28.3,0,0,1,248.768,411.307Z" transform="translate(-164.162 -361.222)" fill="#53b3d3"></path>
          <path id="Trazado_7702" data-name="Trazado 7702" d="M260.787,432.333a3.079,3.079,0,0,1-1,2.129q-10.056,10.065-20.128,20.115c-1.4,1.394-2.851,1.443-4.257.057q-7.285-7.176-14.46-14.463c-1.375-1.4-1.3-2.754.061-4.134q3.7-3.757,7.454-7.457c1.429-1.41,2.783-1.417,4.219-.032,1.341,1.293,2.678,2.595,3.944,3.96.64.69,1.034.715,1.713.02,3.077-3.15,6.21-6.246,9.327-9.357,1.96-1.956,3.165-1.947,5.141.027q3.46,3.457,6.916,6.918A3,3,0,0,1,260.787,432.333Zm-30.3,1.853c-.151.124-.357.267-.532.441-.933.922-1.833,1.879-2.8,2.769-.571.529-.553.9,0,1.443q4.833,4.771,9.607,9.6c.551.558.909.529,1.447-.012q7.7-7.742,15.439-15.439c.575-.571.5-.938-.048-1.442a32,32,0,0,1-2.506-2.518c-.671-.778-1.1-.69-1.795.018-3.164,3.238-6.38,6.426-9.593,9.615-1.58,1.568-2.887,1.551-4.486-.024-1.3-1.277-2.57-2.576-3.863-3.857C231.13,434.551,230.943,434.241,230.49,434.185Z" transform="translate(-188.911 -388.556)" fill="#319e32"></path>
          <path id="Trazado_7703" data-name="Trazado 7703" d="M277.709,376.588a2.62,2.62,0,1,1-5.238.15,2.622,2.622,0,1,1,5.238-.15Z" transform="translate(-223.605 -357.008)" fill="#319e32"></path>
        </g>
      </g>
    </g>
  </g>
</svg>
