<?xml version="1.0" encoding="UTF-8"?>
<svg xmlns="http://www.w3.org/2000/svg" xmlns:xlink="http://www.w3.org/1999/xlink" width="194" height="194" viewBox="0 0 194 194">
  <defs>
    <filter id="Elipse_376" x="0" y="0" width="194" height="194">
      <feOffset dy="3"></feOffset>
      <feGaussianBlur stdDeviation="3" result="blur"></feGaussianBlur>
      <feFlood flood-opacity="0.161"></feFlood>
      <feComposite operator="in" in2="blur"></feComposite>
      <feComposite in="SourceGraphic"></feComposite>
    </filter>
  </defs>
  <g id="Grupo_13886" data-name="Grupo 13886" transform="translate(-716 -1606.73)">
    <g transform="matrix(1, 0, 0, 1, 716, 1606.73)" filter="url(#Elipse_376)">
      <circle id="Elipse_376-2" data-name="Elipse 376" cx="88" cy="88" r="88" transform="translate(9 6)" fill="#fff"></circle>
    </g>
    <g id="Grupo_13819" data-name="Grupo 13819" transform="translate(100.839 20.799)">
      <g id="Grupo_13818" data-name="Grupo 13818" transform="translate(642 1636)">
        <path id="Trazado_7704" data-name="Trazado 7704" d="M581.1,457.68l12-46.949-27.778-5.217v50.992Z" transform="translate(-561.117 -402.062)" fill="#319e32" opacity="0.35"></path>
        <path id="Trazado_7705" data-name="Trazado 7705" d="M856.46,475.859,842.867,428.91l31.471-5.217v50.992Z" transform="translate(-737.116 -413.59)" fill="#53b3d3" opacity="0.35"></path>
        <g id="Grupo_13817" data-name="Grupo 13817" transform="translate(0 0)">
          <path id="Trazado_7706" data-name="Trazado 7706" d="M694.159,458.6a3.82,3.82,0,0,1-3.742,2.009c-5.247-.054-10.5-.016-15.744-.021-2.592,0-3.375-.582-4.155-3.05-.525-1.658-.525-1.658-1.93-.713a7.377,7.377,0,0,1-.8.532,3.556,3.556,0,0,0-2.091,3.686c.042,4.528-3.971,8.53-8.831,9.094a1.739,1.739,0,0,0-1.576.822c-2.274,3.863-5.791,5.554-10.169,5.5a2.725,2.725,0,0,0-2.566,1.3c-2.768,3.8-6.444,5.53-11.191,4.472a1.349,1.349,0,0,0-1.055.084c-4.223,2.5-8.491,1.76-12.779.18-3.27-1.2-5.949-3.353-8.678-5.41-7.76-5.852-15.47-11.77-22.829-18.128-2.664-2.3-4.9-5.031-7.409-7.491-.161-.158-.33-.308-.5-.468-.6.249-.554.832-.7,1.269a3.315,3.315,0,0,1-3.361,2.509c-5.613.03-11.226.056-16.838-.013-2.294-.028-3.38-1.273-3.381-3.57q-.009-25.806,0-51.613c0-2.459,1.077-3.624,3.488-3.49,8.569.474,17.091,1.305,25.357,3.812a22.263,22.263,0,0,1,3.668,1.5c2.05,1.048,3.149,2.607,2.658,4.983-.208,1.006.17,1.267,1.127,1.263q10.473-.041,20.946,0a3.463,3.463,0,0,0,2.106-.838,22.288,22.288,0,0,1,10.306-4.458c4.224-.538,8.16.5,11.986,2.078,5.4,2.224,10.727,4.612,16.186,6.692.937.357,1.631.756,1.668-.86.035-1.523,1.318-2.173,2.593-2.686a70.391,70.391,0,0,1,13.281-3.737,119.871,119.871,0,0,1,21.209-2.013,3.805,3.805,0,0,1,3.739,2Zm-88.891-44.817c-5.693,0-11.029.009-16.365-.01a1.11,1.11,0,0,0-1.277,1.064c-.544,2.634-1.14,5.258-1.765,7.873-1.623,6.788-3.545,13.494-5.535,20.182-.182.613-.415,1.177.179,1.758,3.587,3.51,6.835,7.377,10.668,10.62,8.013,6.781,16.31,13.208,24.789,19.4a17.36,17.36,0,0,0,6.308,2.871,4.774,4.774,0,0,0,2.63.014c-.338-.316-.537-.5-.731-.683-3.848-3.7-7.541-7.558-11.128-11.513a2.912,2.912,0,0,1,.207-4.287,3.047,3.047,0,0,1,4.219.13c.606.551,1.133,1.187,1.7,1.779,3.983,4.145,7.906,8.356,12.228,12.156,2.155,1.895,4.495,1.491,6.174-.86a1.166,1.166,0,0,0-.215-1.843c-4.23-3.77-7.988-8.01-11.933-12.064a7.843,7.843,0,0,1-.951-1.163,3,3,0,0,1,.4-3.878,2.873,2.873,0,0,1,3.869-.275,11.988,11.988,0,0,1,1.566,1.52c3.946,4.183,7.917,8.341,12.152,12.234,2.08,1.913,4.332,2,6.395.4,1.351-1.05,1.363-1.453.151-2.671q-7.143-7.184-14.27-14.383a14.149,14.149,0,0,1-1.442-1.645,2.956,2.956,0,0,1,.285-3.882,2.875,2.875,0,0,1,3.858-.385,9.05,9.05,0,0,1,1.318,1.186q6.338,6.438,12.669,12.883c1.057,1.07,2.182,2.073,3.279,3.1a2.032,2.032,0,0,0,1.758.56,3.576,3.576,0,0,0,2.857-4.919,9.664,9.664,0,0,0-1.442-2.318,55.444,55.444,0,0,0-6.995-7.117c-7.737-6.89-16.11-13.022-23.825-19.939a1.609,1.609,0,0,0-1.982-.259,15.64,15.64,0,0,1-3.7,1.407,4.079,4.079,0,0,0-2.462,1.54c-4.446,5.116-10.435,6.8-16.4,4.623a7.185,7.185,0,0,1-5.153-6.582c-.266-3.527,1.061-6.61,2.716-9.591A37.286,37.286,0,0,1,605.268,413.786Zm-1.749,15.609c-.153,1.077.434,1.671,1.515,1.971,3.342.928,6.378.306,8.578-2.361,1.867-2.262,3.753-4.164,6.863-4.3a2.113,2.113,0,0,0,.637-.241c1.519-.622,3.026-1.274,4.56-1.859a3.16,3.16,0,0,1,3.542.692c5.25,5.019,11.037,9.4,16.616,14.033,5.752,4.773,11.688,9.356,16.487,15.165a.955.955,0,0,0,1.515.159c1.082-.76,2.168-1.52,3.3-2.2a1.223,1.223,0,0,0,.581-1.7c-3.2-9.411-6.559-18.765-10.219-28.009a2.2,2.2,0,0,0-1.365-1.4c-7.811-2.813-15.47-6-23.1-9.274-4.385-1.88-8.95-2.661-13.3-.112a38.562,38.562,0,0,0-14.861,14.942A9.29,9.29,0,0,0,603.519,429.395Zm84.586,1.911q0-10.816,0-21.632c0-1.618-.131-1.747-1.707-1.62-3.77.3-7.551.473-11.3,1.053a95.722,95.722,0,0,0-13.086,2.841c-1.046.316-1.494.67-.854,1.768a19.184,19.184,0,0,1,1.042,2.379c5,12.11,9.3,24.472,13.347,36.926.339,1.044.783,1.457,1.908,1.428,2.964-.077,5.934-.094,8.9,0,1.4.047,1.79-.414,1.778-1.789C688.073,445.545,688.105,438.425,688.105,431.306Zm-128.118-5.733c0,7.159.025,14.318-.024,21.478-.008,1.263.393,1.656,1.649,1.623,3.053-.08,6.11-.061,9.165-.006a1.492,1.492,0,0,0,1.741-1.259c1.359-4.729,2.841-9.424,4.182-14.159a222.829,222.829,0,0,0,5.8-24.6c.378-2.3.382-2.377-1.882-3.014a104.991,104.991,0,0,0-18.851-3.085c-1.716-.159-1.776-.045-1.777,1.679Q559.982,414.9,559.987,425.572Z" transform="translate(-553.837 -396.079)" fill="#53b3d3"></path>
        </g>
      </g>
    </g>
  </g>
</svg>
