<?xml version="1.0" encoding="UTF-8"?>
<svg xmlns="http://www.w3.org/2000/svg" xmlns:xlink="http://www.w3.org/1999/xlink" width="194" height="194" viewBox="0 0 194 194">
  <defs>
    <filter id="Elipse_378" x="0" y="0" width="194" height="194">
      <feOffset dy="3"></feOffset>
      <feGaussianBlur stdDeviation="3" result="blur"></feGaussianBlur>
      <feFlood flood-opacity="0.161"></feFlood>
      <feComposite operator="in" in2="blur"></feComposite>
      <feComposite in="SourceGraphic"></feComposite>
    </filter>
  </defs>
  <g id="Grupo_13887" data-name="Grupo 13887" transform="translate(-1011 -1606.73)">
    <g transform="matrix(1, 0, 0, 1, 1011, 1606.73)" filter="url(#Elipse_378)">
      <circle id="Elipse_378-2" data-name="Elipse 378" cx="88" cy="88" r="88" transform="translate(9 6)" fill="#fff"></circle>
    </g>
    <g id="Grupo_13821" data-name="Grupo 13821" transform="translate(79.042 92.251)">
      <g id="Grupo_13820" data-name="Grupo 13820" transform="translate(978 1549)">
        <path id="Trazado_7707" data-name="Trazado 7707" d="M1057.926,443.6c-10.573-3.026-19.171-9.269-26.945-16.759a71.648,71.648,0,0,1-17.877-27.666,70.653,70.653,0,0,1-4.076-18.893c-.776-10.715-.269-21.445-.388-32.168-.022-1.988.718-2.776,2.846-3.368a190.01,190.01,0,0,0,37.619-14.892c2.672-1.406,5.341-2.832,7.914-4.409a4.389,4.389,0,0,1,5.061,0,188.092,188.092,0,0,0,27.159,13.139,192.705,192.705,0,0,0,18.381,6.162c2.232.628,2.857,1.423,2.859,3.718.008,8.212.055,16.424-.011,24.635a75.607,75.607,0,0,1-8.642,35.525,77.262,77.262,0,0,1-33.255,32.238,42.582,42.582,0,0,1-7.391,2.738Zm-43.932-78.666c.1,5.816-.249,12.478.743,19.108a67.753,67.753,0,0,0,9.818,26.607,71.849,71.849,0,0,0,21.947,21.916,46.508,46.508,0,0,0,11.005,5.453,5.9,5.9,0,0,0,3.535.167,36.721,36.721,0,0,0,8.072-3.531,71.289,71.289,0,0,0,27.393-27.3,65.962,65.962,0,0,0,8.515-31.054c.2-8.4.044-16.813.118-25.22.011-1.266-.454-1.725-1.609-2.061a196.605,196.605,0,0,1-28.427-10.787q-7.425-3.474-14.536-7.547a1.793,1.793,0,0,0-2.037,0c-1.36.819-2.756,1.579-4.151,2.337a193.5,193.5,0,0,1-39.031,16.057,1.626,1.626,0,0,0-1.38,1.882C1014.028,355.344,1013.995,359.722,1013.995,364.938Z" transform="translate(-1008.586 -324.646)" fill="#53b3d3"></path>
        <path id="Trazado_7708" data-name="Trazado 7708" d="M1134.738,448.394a8.191,8.191,0,0,1-2.716,5.888q-8.724,8.693-17.419,17.414-6.284,6.286-12.57,12.57c-3.952,3.943-8.751,4-12.713.082q-6.984-6.9-13.883-13.885c-3.463-3.509-3.741-8.034-.807-11.625a8.156,8.156,0,0,1,11.275-1.146c3.091,2.588,5.749,5.636,8.636,8.443,1.135,1.1,1.125,1.116,2.221.02q11.666-11.665,23.332-23.332a9.171,9.171,0,0,1,5.308-2.862A8.261,8.261,0,0,1,1134.738,448.394Zm-39.067,33.486a3.237,3.237,0,0,0,2.547-1.2q15.028-15.04,30.064-30.071a6.081,6.081,0,0,0,.474-.51,2.973,2.973,0,0,0,.394-3.37,2.835,2.835,0,0,0-3-1.541,3.492,3.492,0,0,0-2.247,1.3q-12.816,12.815-25.635,25.629c-1.977,1.975-3.229,1.974-5.21,0-3.317-3.31-6.616-6.638-9.954-9.926a2.99,2.99,0,1,0-4.24,4.207q7.238,7.3,14.532,14.55A2.775,2.775,0,0,0,1095.671,481.88Z" transform="translate(-1052.732 -404.093)" fill="#319e32"></path>
        <path id="Trazado_7709" data-name="Trazado 7709" d="M1056.924,398.277a2.6,2.6,0,0,1,2.66,1.623,2.518,2.518,0,0,1-.758,2.938,4.507,4.507,0,0,1-1.428.752c-3.349,1.2-6.677,2.457-10.052,3.573a1.7,1.7,0,0,0-1.384,1.987c.083,1.969.04,3.944.016,5.917-.021,1.74-1.013,2.856-2.508,2.89a2.607,2.607,0,0,1-2.718-2.823c-.047-3.094-.03-6.189,0-9.283.013-1.611,1.055-2.4,2.451-2.851,4.23-1.37,8.431-2.825,12.579-4.43A8.291,8.291,0,0,1,1056.924,398.277Z" transform="translate(-1030.742 -375.41)" fill="#319e32"></path>
        <path id="Trazado_7710" data-name="Trazado 7710" d="M1227.87,585.459a2.941,2.941,0,0,1-.62,1.721,67.485,67.485,0,0,1-15.028,16.014,2.626,2.626,0,1,1-3.266-4.085,81.605,81.605,0,0,0,7.628-6.956,58.517,58.517,0,0,0,5.824-7.221,9.161,9.161,0,0,1,1.244-1.521,2.274,2.274,0,0,1,2.682-.444A2.484,2.484,0,0,1,1227.87,585.459Z" transform="translate(-1145.903 -502.568)" fill="#319e32"></path>
        <path id="Trazado_7711" data-name="Trazado 7711" d="M1190.59,647.59a2.605,2.605,0,0,1,2.543,2.631,2.8,2.8,0,0,1-2.87,2.612,2.583,2.583,0,0,1-2.479-2.58A2.756,2.756,0,0,1,1190.59,647.59Z" transform="translate(-1132.132 -547.297)" fill="#319e32"></path>
        <path id="Trazado_7712" data-name="Trazado 7712" d="M1113.4,391.254a2.61,2.61,0,1,1-5.22-.017,2.722,2.722,0,0,1,2.635-2.571A2.629,2.629,0,0,1,1113.4,391.254Z" transform="translate(-1077.253 -368.784)" fill="#319e32"></path>
      </g>
    </g>
  </g>
</svg>
