<?xml version="1.0" encoding="UTF-8"?>
<svg xmlns="http://www.w3.org/2000/svg" xmlns:xlink="http://www.w3.org/1999/xlink" width="194" height="194" viewBox="0 0 194 194">
  <defs>
    <filter id="Elipse_377" x="0" y="0" width="194" height="194">
      <feOffset dy="3"></feOffset>
      <feGaussianBlur stdDeviation="3" result="blur"></feGaussianBlur>
      <feFlood flood-opacity="0.161"></feFlood>
      <feComposite operator="in" in2="blur"></feComposite>
      <feComposite in="SourceGraphic"></feComposite>
    </filter>
  </defs>
  <g id="Grupo_13888" data-name="Grupo 13888" transform="translate(-1306 -1606.73)">
    <g transform="matrix(1, 0, 0, 1, 1306, 1606.73)" filter="url(#Elipse_377)">
      <circle id="Elipse_377-2" data-name="Elipse 377" cx="88" cy="88" r="88" transform="translate(9 6)" fill="#fff"></circle>
    </g>
    <g id="Grupo_13823" data-name="Grupo 13823" transform="translate(116.44 73.185)">
      <g id="Grupo_13822" data-name="Grupo 13822" transform="translate(1216 1557)">
        <path id="Trazado_7713" data-name="Trazado 7713" d="M1451.57,496.7q4.108-4.162,8.217-8.32a5.633,5.633,0,0,1,.846-.7,2.526,2.526,0,0,1,3.376.312,2.457,2.457,0,0,1-.012,3.376c-1.156,1.219-2.441,2.316-3.671,3.467l.229.4h3.652c2.8,0,5.6-.02,8.4.012a2.638,2.638,0,0,1,2.913,2.484c.049,1.5-1.136,2.605-2.916,2.618-3.989.028-7.978.009-12.137.009a13.826,13.826,0,0,0,2.313,2.571c.454.516.99.966,1.4,1.513a2.5,2.5,0,0,1-3.309,3.622,5.428,5.428,0,0,1-1.078-.847q-4.121-4.148-8.22-8.318Z" transform="translate(-1451.57 -427.193)" fill="#319e32"></path>
        <path id="Trazado_7714" data-name="Trazado 7714" d="M1623.872,666.552q-4.16-4.106-8.316-8.216a5.363,5.363,0,0,1-.773-.963,2.551,2.551,0,0,1,.4-3.263,2.483,2.483,0,0,1,3.275-.057c.973.833,1.844,1.785,2.765,2.679.316.307.646.6,1.192,1.106,0-1.825,0-3.366,0-4.907,0-2.523-.03-5.046.02-7.568a2.554,2.554,0,1,1,5.089.059c.033,4.033.011,8.066.011,12.292a18.021,18.021,0,0,0,2.691-2.466c.477-.428.9-.924,1.415-1.3a2.512,2.512,0,0,1,3.166.189,2.434,2.434,0,0,1,.439,3.131,6.809,6.809,0,0,1-1.039,1.274q-4.053,4.018-8.132,8.01Z" transform="translate(-1554.492 -525.461)" fill="#319e32"></path>
        <path id="Trazado_7715" data-name="Trazado 7715" d="M1598.6,475.6a14.436,14.436,0,0,1-3.529-.527,2.6,2.6,0,0,0-2,.181,10.122,10.122,0,0,1-6.327.585,1.935,1.935,0,0,0-1.971.563c-3.1,3.128-6.509,3.674-10.516,1.655a2.414,2.414,0,0,0-2.513-.021c-3.62,1.843-7.659,1.776-10.5-1.876a1.249,1.249,0,0,0-1.468-.38,9.994,9.994,0,0,1-6.711-.613,3.059,3.059,0,0,0-2.14.007,13.131,13.131,0,0,1-9.343-1.046,9.032,9.032,0,0,1-4.684-9.454,1.854,1.854,0,0,0-.683-2.025c-4.842-4.037-5.015-9.072-.472-13.467a1.559,1.559,0,0,0,.575-1.776c-1.486-5.257.348-9.449,4.37-12.814a3.133,3.133,0,0,0,1.318-2.641,7.885,7.885,0,0,1,3.651-6.59,1.511,1.511,0,0,0,.73-1.807c-1.219-5.969,1.583-10.774,7.354-12.669a2.006,2.006,0,0,0,1.477-1.246,11.424,11.424,0,0,1,16.308-6.1,2.635,2.635,0,0,0,2.88.018,11.887,11.887,0,0,1,16.723,6.011,1.928,1.928,0,0,0,1.3,1.258c6.164,2.091,8.715,6.44,7.543,12.9a1.338,1.338,0,0,0,.686,1.572,8.624,8.624,0,0,1,3.854,7.232,2.116,2.116,0,0,0,.916,1.829,12.47,12.47,0,0,1,5.127,8.612,10.107,10.107,0,0,1-.422,4.339,1.6,1.6,0,0,0,.533,1.9c2.408,2.305,3.9,5,3.006,8.48a9.252,9.252,0,0,1-3.48,4.991,1.6,1.6,0,0,0-.726,1.733,9.409,9.409,0,0,1-8.808,11.061C1599.971,475.523,1599.285,475.553,1598.6,475.6Zm.419-44.117a2.5,2.5,0,0,0-1.387-1.995,11.438,11.438,0,0,0-2-.9c-2.165-.807-2.746-2.354-1.5-4.322a5.507,5.507,0,0,0,.321-5.991c-1.139-2-3.1-2.753-5.344-2.819-2.454-.072-4.37,1.106-6.2,2.575a2.557,2.557,0,0,1-3.8-.168,2.693,2.693,0,0,1,.565-3.79,13.174,13.174,0,0,1,5.048-3c1.186-.367,1.06-.87.4-1.63-1.789-2.062-5.255-2.678-8.138-1.467a2.146,2.146,0,0,0-1.541,2.263c.059,7.661.048,15.323.01,22.984-.006,1.236.157,1.8,1.587,1.3a2.135,2.135,0,0,1,2.638,1.224,2.311,2.311,0,0,1-.47,3.008,5.642,5.642,0,0,1-1.505.943,3.528,3.528,0,0,0-2.222,3.476q0,14.382-.012,28.765a1.45,1.45,0,0,0,.855,1.422c2.2,1.193,3.96.769,5.3-1.328.223-.347.408-.719.641-1.059a2.571,2.571,0,0,1,3.348-1.047c.642.243,1.265.538,1.906.785.244.094.545.27.77.026s-.026-.5-.127-.743c-.248-.59-.54-1.166-.736-1.772-.563-1.733,0-3.086,1.471-3.615,1.394-.5,2.7.134,3.312,1.834a5.674,5.674,0,0,0,4.663,3.788,13.034,13.034,0,0,0,2.6.149c3.825-.051,6.124-3.218,4.342-6.645-.9-1.739-.407-2.887,1.282-3.92a19.022,19.022,0,0,0,2.166-1.451c1.821-1.494,1.916-3.036.391-4.867a11,11,0,0,0-2.327-1.917c-1.575-1.087-1.993-2.293-.992-3.868,2.412-3.8.509-8.242-3.474-10.207-4.158-2.051-8.627-1.171-12.03,2.349-1.347,1.393-2.842,1.6-3.98.544s-1.048-2.594.191-4.036a13.957,13.957,0,0,1,4.909-3.689A15.814,15.814,0,0,1,1599.018,431.479Zm-41.078,39.327a3.071,3.071,0,0,0,.66-.059c.643-.238,1.278-.5,1.915-.755a2.54,2.54,0,0,1,3.542,1.089,17.66,17.66,0,0,0,1.462,2.155c1.039,1.134,2.316.793,3.578.383,1.156-.375,1.271-1.234,1.264-2.284-.033-5.185-.115-10.372.032-15.553.063-2.219-.59-3.646-2.64-4.577a2.518,2.518,0,0,1,1.553-4.776c.821.139,1.05-.033,1.049-.847q-.025-17.963-.01-35.926a1.463,1.463,0,0,0-.62-1.291,6.769,6.769,0,0,0-8.724,1.258c-.472.636-.637,1.035.38,1.336a13.974,13.974,0,0,1,5.317,3.076c1.44,1.279,1.687,2.733.632,3.963-.977,1.139-2.5,1.156-3.9-.016a9.823,9.823,0,0,0-4.576-2.4c-2.562-.443-4.944.051-6.549,2.2-1.557,2.088-1.375,4.35.017,6.559,1.175,1.868.568,3.467-1.526,4.216a6.109,6.109,0,0,0-2.833,1.609c-.257.3-.669.629-.431,1.067.227.416.666.1,1.006.085,5.106-.3,9.5,1.188,12.9,5.142,1.241,1.442,1.27,2.871.144,3.912-1.153,1.067-2.715.938-3.973-.51a9.547,9.547,0,0,0-6.838-3.388,9.16,9.16,0,0,0-8.434,3.717c-1.818,2.475-1.767,5.078-.156,7.719a2.388,2.388,0,0,1-.6,3.319c-.386.321-.831.571-1.242.864-3.581,2.548-3.509,5.008.211,7.282l.118.071c2.552,1.535,2.743,2.087,1.694,4.9a4.092,4.092,0,0,0,2.652,5.7,7.244,7.244,0,0,0,9.273-3.843,2.537,2.537,0,1,1,4.764,1.742C1558.77,468.859,1558.363,469.73,1557.939,470.806Z" transform="translate(-1502.706 -373.402)" fill="#53b3d3"></path>
        <path id="Trazado_7716" data-name="Trazado 7716" d="M1744.111,387.372c-.744.11-1,.589-1.339.927q-3.519,3.486-7.008,7a5,5,0,0,1-1.653,1.207,2.526,2.526,0,0,1-3.2-3.346,6.067,6.067,0,0,1,1.334-1.735q3.4-3.41,6.8-6.823a2.609,2.609,0,0,0,.98-1.36c-1.5,0-2.948.016-4.39,0-1.875-.026-3.008-.952-3.054-2.46-.047-1.531,1.164-2.605,3.053-2.62q5.159-.04,10.318-.006c2.282.018,3.26,1.014,3.271,3.295q.025,4.953-.009,9.906a5.683,5.683,0,0,1-.185,1.491,2.511,2.511,0,0,1-2.686,1.879,2.449,2.449,0,0,1-2.214-2.415C1744.067,390.68,1744.111,389.048,1744.111,387.372Z" transform="translate(-1628.014 -358.256)" fill="#319e32"></path>
        <path id="Trazado_7717" data-name="Trazado 7717" d="M1740.347,616.334q-4.1-3.86-8.188-7.722a7.635,7.635,0,0,1-.925-1.014,2.5,2.5,0,0,1,3.3-3.645,9.2,9.2,0,0,1,1.564,1.328c2.563,2.544,5.11,5.1,8,7.565,0-1.433-.01-2.866,0-4.3.017-1.835.979-3.026,2.448-3.06,1.545-.036,2.634,1.152,2.655,3.05q.059,5.294,0,10.588a2.7,2.7,0,0,1-3.013,2.973q-5.294.041-10.588-.006c-1.8-.014-2.991-1.057-3.011-2.536s1.167-2.526,2.969-2.562c1.453-.028,2.906-.006,4.359-.006Z" transform="translate(-1628.016 -500.753)" fill="#319e32"></path>
        <path id="Trazado_7718" data-name="Trazado 7718" d="M1510.668,387.464c-.228,1.676.1,3.382-.229,5.056a2.508,2.508,0,0,1-1.931,2.091,2.384,2.384,0,0,1-2.376-.728,2.569,2.569,0,0,1-.769-1.866c-.027-3.757-.08-7.516.016-11.272.044-1.726,1.142-2.632,2.9-2.647q5.362-.045,10.724.005c1.79.016,2.948,1.077,2.954,2.586.006,1.495-1.142,2.475-3,2.51-1.45.027-2.9.005-4.375.005.03.694.486.915.788,1.221,2.286,2.316,4.59,4.614,6.884,6.921a10.4,10.4,0,0,1,.932,1.009,2.521,2.521,0,0,1-.13,3.592,2.421,2.421,0,0,1-3.574-.128c-1.858-1.769-3.661-3.6-5.456-5.431-1.017-1.038-1.974-2.136-2.958-3.207Z" transform="translate(-1485.553 -358.219)" fill="#319e32"></path>
        <path id="Trazado_7719" data-name="Trazado 7719" d="M1514.48,616.965c1.6,0,3.067-.024,4.53.006,1.815.037,2.952,1.069,2.917,2.591a2.628,2.628,0,0,1-2.89,2.5q-5.361.053-10.724.016a2.661,2.661,0,0,1-2.99-2.853c-.071-3.619-.057-7.242,0-10.861a2.687,2.687,0,0,1,2.544-2.892c1.41-.042,2.487,1.016,2.616,2.794.108,1.484.022,2.983.022,4.511.769-.055.981-.516,1.287-.819,2.541-2.515,5.041-5.07,7.6-7.562a2.434,2.434,0,0,1,3.577-.2,2.51,2.51,0,0,1,.214,3.586,9.384,9.384,0,0,1-.925,1.014c-2.263,2.274-4.536,4.539-6.793,6.819A2.7,2.7,0,0,0,1514.48,616.965Z" transform="translate(-1485.521 -500.731)" fill="#319e32"></path>
        <path id="Trazado_7720" data-name="Trazado 7720" d="M1627.536,333.192q0,1.554,0,3.107c0,2.982.018,5.964-.011,8.946a2.624,2.624,0,0,1-2.485,2.9c-1.5.042-2.6-1.137-2.616-2.922-.03-3.988-.009-7.976-.009-12.374-.758.752-1.281,1.277-1.811,1.795-.721.705-1.4,1.457-2.182,2.094a2.5,2.5,0,0,1-3.274-.113,2.539,2.539,0,0,1-.415-3.151,7.161,7.161,0,0,1,1.042-1.273q3.338-3.376,6.7-6.725c1.859-1.842,3.116-1.858,4.943-.052,2.284,2.258,4.541,4.542,6.808,6.817a8.292,8.292,0,0,1,.648.712,2.543,2.543,0,1,1-3.693,3.493c-1.146-1.1-2.216-2.276-3.32-3.419Z" transform="translate(-1554.488 -324.085)" fill="#319e32"></path>
        <path id="Trazado_7721" data-name="Trazado 7721" d="M1784.674,500.346h-8.242c-1.1,0-2.2.006-3.3,0-2.139-.014-3.384-.983-3.354-2.6.029-1.576,1.237-2.514,3.294-2.521,3.072-.011,6.145,0,9.217,0h2.426l.264-.415c-1.073-.972-2.18-1.909-3.21-2.923-1.362-1.342-1.484-2.878-.4-3.989,1.033-1.058,2.594-1.007,3.912.271q3.851,3.735,7.593,7.58a2.586,2.586,0,0,1,.039,4.03c-2.549,2.637-5.171,5.2-7.79,7.773a2.546,2.546,0,0,1-3.151.561,2.431,2.431,0,0,1-1.3-2.657,2.919,2.919,0,0,1,1.044-1.729c1.045-1.019,2.1-2.021,3.159-3.03Z" transform="translate(-1652.739 -427.172)" fill="#319e32"></path>
        <path id="Trazado_7722" data-name="Trazado 7722" d="M1681.277,534.851a9.738,9.738,0,0,1-8.949-.854,3.213,3.213,0,0,1-1.5-1.724,2.389,2.389,0,0,1,.683-2.636,2.458,2.458,0,0,1,2.694-.456c.467.179.89.471,1.344.691a4.089,4.089,0,0,0,5.872-2.241c.174-.423.3-.87.5-1.28a2.513,2.513,0,0,1,2.977-1.358c1.246.375,2.279,1.705,1.773,2.842a8.59,8.59,0,0,0-.079,6.705c.582,1.722-.525,3.391-2.057,4.461a2.293,2.293,0,0,1-2.938-.162,2.409,2.409,0,0,1-.79-2.844C1680.906,535.7,1681.039,535.415,1681.277,534.851Z" transform="translate(-1590.093 -451.032)" fill="#53b3d3"></path>
        <path id="Trazado_7723" data-name="Trazado 7723" d="M1657.516,450.965c1.708.066,2.474-.47,3.042-2.136a13.937,13.937,0,0,1,.487-1.425,2.517,2.517,0,0,1,2.949-1.41,2.618,2.618,0,0,1,1.757,3.355c-.546,1.58-1.042,3.072-.2,4.811a2.739,2.739,0,0,1-.789,3.148,2.384,2.384,0,0,1-3.771-.536,1.3,1.3,0,0,0-1.661-.689,5.659,5.659,0,0,1-2.178.039c-2.015-.305-3.078-1.339-2.947-2.929C1654.337,451.645,1655.464,450.885,1657.516,450.965Z" transform="translate(-1579.67 -401.097)" fill="#53b3d3"></path>
        <path id="Trazado_7724" data-name="Trazado 7724" d="M1658,561.159c.006-2.936,3.4-6.327,6.135-6.286a2.421,2.421,0,0,1,2.352,1.6,2.333,2.333,0,0,1-.622,2.756,4.994,4.994,0,0,1-1.284.772c-.887.414-1.4.867-.961,2.01a2.256,2.256,0,0,1-1.172,2.907,2.513,2.513,0,0,1-3.213-.666A5.433,5.433,0,0,1,1658,561.159Z" transform="translate(-1582.075 -469.988)" fill="#53b3d3"></path>
        <path id="Trazado_7725" data-name="Trazado 7725" d="M1577.64,534.934c.193.441.34.724.444,1.021a2.432,2.432,0,0,1-.98,3.009,2.485,2.485,0,0,1-3.169-.306,4.927,4.927,0,0,1-.9-6.481,1.439,1.439,0,0,0,.041-1.846,6.816,6.816,0,0,1-.87-2.449,2.511,2.511,0,0,1,1.681-2.931,2.478,2.478,0,0,1,3.034,1.229,10.482,10.482,0,0,1,.451,1.15c1.063,2.77,3.445,3.716,6.1,2.423,2.244-1.093,3.6-.9,4.384.622s.013,2.952-2.176,4.07C1583.4,535.611,1582.1,535.7,1577.64,534.934Z" transform="translate(-1527.799 -450.984)" fill="#53b3d3"></path>
        <path id="Trazado_7726" data-name="Trazado 7726" d="M1600.761,454.717c.009-.117-.058-.4.054-.564,1.174-1.687.274-3.3-.126-4.938a2.544,2.544,0,1,1,4.9-1.338c.12.346.2.705.327,1.048a2.59,2.59,0,0,0,2.994,2.024,3.633,3.633,0,0,1,2.017.218,2.443,2.443,0,0,1,1.3,2.394,2.38,2.38,0,0,1-1.705,2.259,6.556,6.556,0,0,1-3.65.217c-.552-.114-.919-.094-1.235.481a2.421,2.421,0,0,1-2.989,1.326C1601.413,457.5,1600.745,456.374,1600.761,454.717Z" transform="translate(-1545.781 -401.075)" fill="#53b3d3"></path>
        <path id="Trazado_7727" data-name="Trazado 7727" d="M1613.561,560.873a6.181,6.181,0,0,1-1.07,3.128,2.488,2.488,0,0,1-3.252.927,2.289,2.289,0,0,1-1.253-2.993c.462-1.149.058-1.565-.9-1.928a3.35,3.35,0,0,1-1.826-1.388,2.538,2.538,0,0,1,2-3.774C1610.024,554.613,1613.585,557.889,1613.561,560.873Z" transform="translate(-1548.519 -469.964)" fill="#53b3d3"></path>
      </g>
    </g>
  </g>
</svg>
