<?xml version="1.0" encoding="UTF-8"?>
<svg xmlns="http://www.w3.org/2000/svg" id="Grupo_13781" data-name="Grupo 13781" width="178.755" height="178.662" viewBox="0 0 178.755 178.662">
  <path id="Trazado_5353" data-name="Trazado 5353" d="M-10.254,1001.913c2.662-4.223,6.212-7.675,9.831-11.025a129.425,129.425,0,0,1,47.735-28.344A98.561,98.561,0,0,1,81.923,957.3a106.932,106.932,0,0,1,39.28,9.211,129.5,129.5,0,0,1,40.777,27.833c1.711,1.735,3.328,3.572,4.88,5.452,2.187,2.649,2.189,5.072.007,7.724a109.686,109.686,0,0,1-21.747,19.744c-14.95,10.559-31.253,18.008-49.364,21.27a96.638,96.638,0,0,1-46.611-3.219A127.617,127.617,0,0,1-3.783,1013.13a39.336,39.336,0,0,1-6.471-7.73Zm89.313-33.726a35.469,35.469,0,1,0,35.43,35.548A35.526,35.526,0,0,0,79.059,968.188Zm37.533,62.633c.8-.259,1.022-.315,1.231-.4.641-.272,1.286-.536,1.914-.838a130.559,130.559,0,0,0,34.666-24.547c1.093-1.065,1.131-1.654.021-2.744a127.909,127.909,0,0,0-34.817-24.618c-.811-.385-1.646-.72-2.47-1.079a49.156,49.156,0,0,1,8.271,27.047A46.21,46.21,0,0,1,116.591,1030.821ZM41.23,976.507a72.442,72.442,0,0,0-9.363,4.561,131.672,131.672,0,0,0-28.425,21.417c-.944.923-.956,1.5.017,2.361,1.611,1.418,3.106,2.966,4.695,4.411A123.473,123.473,0,0,0,39.012,1029.9a3.484,3.484,0,0,0,2.052.638C29.77,1012.567,29.766,994.74,41.23,976.507Z" transform="translate(10.254 -914.383)" fill="#fff"></path>
  <path id="Trazado_5354" data-name="Trazado 5354" d="M236.915,834.576a6.113,6.113,0,0,1,3.658,6.318c-.144,3.651-.012,7.312-.045,10.969a5.365,5.365,0,1,1-10.713,0c-.033-3.657.1-7.318-.045-10.968a6.109,6.109,0,0,1,3.659-6.317Z" transform="translate(-145.898 -834.576)" fill="#fff"></path>
  <path id="Trazado_5355" data-name="Trazado 5355" d="M118.46,856.233a5.087,5.087,0,0,1,4.264,2.68c2.39,4.107,4.775,8.218,7.047,12.39a5.394,5.394,0,0,1-9.317,5.433c-2.508-4.169-4.959-8.383-7.211-12.694C111.352,860.423,113.965,856.277,118.46,856.233Z" transform="translate(-69.688 -848.666)" fill="#fff"></path>
  <path id="Trazado_5356" data-name="Trazado 5356" d="M338.6,856.235c4.378.027,7.148,3.891,5.526,7.33a116.994,116.994,0,0,1-7.743,13.628,5.36,5.36,0,0,1-9.2-5.327c2.4-4.577,5.014-9.043,7.669-13.477A4.525,4.525,0,0,1,338.6,856.235Z" transform="translate(-208.945 -848.667)" fill="#fff"></path>
  <path id="Trazado_5357" data-name="Trazado 5357" d="M118.462,1280.922c-4.347-.057-7.1-3.959-5.477-7.356a124.412,124.412,0,0,1,7.726-13.591,5.232,5.232,0,0,1,6.841-1.473c2.39,1.336,3.661,4.289,2.4,6.714-2.4,4.622-5.046,9.124-7.728,13.593A4.489,4.489,0,0,1,118.462,1280.922Z" transform="translate(-69.619 -1109.941)" fill="#fff"></path>
  <path id="Trazado_5358" data-name="Trazado 5358" d="M338.7,1280.9a5.062,5.062,0,0,1-4.125-2.644c-2.4-4.116-4.788-8.239-7.067-12.422a5.4,5.4,0,0,1,9.34-5.4c2.485,4.131,4.912,8.305,7.151,12.573C345.945,1276.717,343.278,1280.938,338.7,1280.9Z" transform="translate(-209.045 -1109.926)" fill="#fff"></path>
  <path id="Trazado_5359" data-name="Trazado 5359" d="M229.882,1291.43c0-2.088-.037-4.176.012-6.262a5.431,5.431,0,0,1,5.367-5.281,5.368,5.368,0,0,1,5.314,5.154q.113,6.434,0,12.872a5.179,5.179,0,0,1-5.354,5.043,5.267,5.267,0,0,1-5.329-5.089q-.009-.174-.009-.348Q229.879,1294.474,229.882,1291.43Z" transform="translate(-145.969 -1124.292)" fill="#fff"></path>
  <path id="Trazado_5360" data-name="Trazado 5360" d="M193.584,1056.461a18.05,18.05,0,1,1,17.969,18.051A18.183,18.183,0,0,1,193.584,1056.461Zm18.084-7.193a7.193,7.193,0,1,0,7.159,7.312A7.4,7.4,0,0,0,211.668,1049.268Z" transform="translate(-122.362 -967.188)" fill="#fff"></path>
</svg>
