<svg xmlns="http://www.w3.org/2000/svg" xmlns:xlink="http://www.w3.org/1999/xlink" width="92" height="92" viewBox="0 0 92 92">
  <defs>
    <linearGradient id="linear-gradient" x1="0.5" x2="0.5" y2="1" gradientUnits="objectBoundingBox">
      <stop offset="0" stop-color="#54b4d4"/>
      <stop offset="1" stop-color="#6ac0b2"/>
    </linearGradient>
    <filter id="Elipse_383" x="0" y="0" width="92" height="92" filterUnits="userSpaceOnUse">
      <feOffset dy="3" input="SourceAlpha"/>
      <feGaussianBlur stdDeviation="3" result="blur"/>
      <feFlood flood-opacity="0.161"/>
      <feComposite operator="in" in2="blur"/>
      <feComposite in="SourceGraphic"/>
    </filter>
  </defs>
  <g id="Grupo_13890" data-name="Grupo 13890" transform="translate(9 6)">
    <g transform="matrix(1, 0, 0, 1, -9, -6)" filter="url(#Elipse_383)">
      <circle id="Elipse_383-2" data-name="Elipse 383" cx="37" cy="37" r="37" transform="translate(9 6)" fill="url(#linear-gradient)"/>
    </g>
    <path id="Icon_awesome-phone-alt" data-name="Icon awesome-phone-alt" d="M31.307,22.774l-7.05-3.021a1.511,1.511,0,0,0-1.762.434L19.373,24A23.331,23.331,0,0,1,8.22,12.848l3.814-3.122a1.507,1.507,0,0,0,.434-1.763L9.448.913A1.521,1.521,0,0,0,7.717.038L1.171,1.549A1.511,1.511,0,0,0,0,3.022,29.2,29.2,0,0,0,29.206,32.229a1.511,1.511,0,0,0,1.473-1.171l1.511-6.547A1.529,1.529,0,0,0,31.307,22.774Z" transform="translate(20.86 20.859)" fill="#fff" opacity="0.85"/>
  </g>
</svg>
