<svg id="Icon_awesome-facebook-square" data-name="Icon awesome-facebook-square" xmlns="http://www.w3.org/2000/svg" width="44.294" height="44.291" viewBox="0 0 44.294 44.291">
  <path id="Icon_awesome-facebook-square-2" data-name="Icon awesome-facebook-square" d="M39.548,2.25H4.746A4.746,4.746,0,0,0,0,7V41.8a4.746,4.746,0,0,0,4.746,4.745h13.57V31.483H12.087V24.4h6.229v-5.4c0-6.144,3.658-9.538,9.261-9.538a37.739,37.739,0,0,1,5.489.478v6.031H29.975c-3.046,0-4,1.89-4,3.829v4.6h6.8l-1.088,7.088H25.978V46.541h13.57A4.746,4.746,0,0,0,44.294,41.8V7A4.746,4.746,0,0,0,39.548,2.25Z" transform="translate(0 -2.25)" fill="#fff"/>
</svg>
